<svg width="13" height="13" viewBox="0 0 13 13" fill="none" xmlns="http://www.w3.org/2000/svg">
<path d="M6.29883 0.55957C5.11214 0.55957 3.9521 0.911464 2.96541 1.57075C1.97871 2.23004 1.20968 3.16711 0.755554 4.26347C0.301428 5.35983 0.182608 6.56623 0.414119 7.73011C0.64563 8.894 1.21707 9.96309 2.05619 10.8022C2.8953 11.6413 3.9644 12.2128 5.12829 12.4443C6.29217 12.6758 7.49857 12.557 8.59493 12.1028C9.69129 11.6487 10.6284 10.8797 11.2876 9.89299C11.9469 8.90629 12.2988 7.74626 12.2988 6.55957C12.2958 4.96921 11.6627 3.44486 10.5381 2.3203C9.41354 1.19574 7.88919 0.56262 6.29883 0.55957ZM9.5296 7.02111H6.29883C6.17642 7.02111 6.05903 6.97248 5.97247 6.88593C5.88592 6.79937 5.83729 6.68198 5.83729 6.55957V3.3288C5.83729 3.20639 5.88592 3.089 5.97247 3.00244C6.05903 2.91589 6.17642 2.86726 6.29883 2.86726C6.42124 2.86726 6.53863 2.91589 6.62519 3.00244C6.71174 3.089 6.76037 3.20639 6.76037 3.3288V6.09803H9.5296C9.65201 6.09803 9.7694 6.14666 9.85596 6.23321C9.94251 6.31977 9.99114 6.43716 9.99114 6.55957C9.99114 6.68198 9.94251 6.79937 9.85596 6.88593C9.7694 6.97248 9.65201 7.02111 9.5296 7.02111Z" fill="#AEB9E1"/>
</svg>
