<svg 
  viewBox="0 0 30 30" 
  fill="#aeb9e1"
  xmlns="http://www.w3.org/2000/svg">
  <path d="M25.43 21.445h-2.06c-0.141 0 -0.272 0.062 -0.36 0.17 -0.205 0.249 -0.425 0.489 
    -0.656 0.718a10.365 10.365 0 0 1 -3.302 2.224A10.336 10.336 0 0 1 15.012 25.371c-1.403 
    0 -2.763 -0.275 -4.04 -0.814a10.365 10.365 0 0 1 -3.302 -2.224 10.351 10.351 0 0 1 -2.227 
    -3.296C4.901 17.76 4.629 16.403 4.629 15s0.275 -2.76 0.814 -4.037c0.521 -1.233 1.271 
    -2.344 2.227 -3.296s2.065 -1.702 3.302 -2.224c1.277 -0.539 2.637 -0.814 4.04 -0.814s2.763 
    0.272 4.04 0.814c1.236 0.521 2.347 1.271 3.302 2.224 0.231 0.231 0.448 0.472 0.656 0.718 0.088 
    0.108 0.223 0.17 0.36 0.17H25.43c0.185 0 0.299 -0.205 0.196 -0.36C23.379 4.702 19.447 2.391 
    14.979 2.402 7.96 2.42 2.332 8.118 2.402 15.129 2.473 22.028 8.092 27.598 15.012 27.598c4.456 
    0 8.37 -2.309 10.614 -5.792 0.1 -0.155 -0.012 -0.36 -0.196 -0.36m2.604 -6.63L23.877 
    11.534c-0.155 -0.123 -0.381 -0.012 -0.381 0.185v2.227H14.297c-0.129 0 -0.234 0.105 
    -0.234 0.234v1.641c0 0.129 0.105 0.234 0.234 0.234h9.199v2.227c0 0.196 0.229 0.308 
    0.381 0.185l4.157 -3.281a0.234 0.234 0 0 0 0 -0.369"/></svg>          