<svg width="200" height="200" viewBox="0 0 200 200" fill="none" xmlns="http://www.w3.org/2000/svg">
<path d="M42 30.5H162C167.247 30.5 171.5 34.7533 171.5 40V160C171.5 165.247 167.247 169.5 162 169.5H42C36.7533 169.5 32.5 165.247 32.5 160V40C32.5 34.7533 36.7533 30.5 42 30.5Z" fill="url(#paint0_linear_45_45278)" stroke="url(#paint1_linear_45_45278)"/>
<g filter="url(#filter0_d_45_45278)">
<path d="M146 40H11C8.23858 40 6 42.2386 6 45V70C6 72.7614 8.23858 75 11 75H146C148.761 75 151 72.7614 151 70V45C151 42.2386 148.761 40 146 40Z" fill="white"/>
</g>
<path opacity="0.3" d="M75 48H49C47.3431 48 46 49.3431 46 51C46 52.6569 47.3431 54 49 54H75C76.6569 54 78 52.6569 78 51C78 49.3431 76.6569 48 75 48Z" fill="#5136F5"/>
<path d="M93 61H49C47.3431 61 46 62.3431 46 64C46 65.6569 47.3431 67 49 67H93C94.6569 67 96 65.6569 96 64C96 62.3431 94.6569 61 93 61Z" fill="#DEE9FC"/>
<path d="M33 43H14C11.2386 43 9 45.2386 9 48V67C9 69.7614 11.2386 72 14 72H33C35.7614 72 38 69.7614 38 67V48C38 45.2386 35.7614 43 33 43Z" fill="#5136F5"/>
<path d="M21.2217 60.7798H23.2217L23.2437 60.0098C23.2437 58.9978 23.8817 58.7338 24.7837 58.4478C25.6885 58.1904 26.4849 57.6454 27.0525 56.8952C27.6201 56.1451 27.928 55.2305 27.9297 54.2898C27.9495 53.7154 27.8499 53.1432 27.6371 52.6094C27.4244 52.0755 27.1031 51.5916 26.6936 51.1884C26.2842 50.7851 25.7954 50.4713 25.2584 50.2667C24.7214 50.0621 24.1477 49.9712 23.5737 49.9998C22.9671 49.9865 22.3642 50.0967 21.8014 50.3235C21.2387 50.5503 20.7279 50.889 20.3 51.3192C19.8721 51.7493 19.536 52.2619 19.3122 52.8258C19.0883 53.3897 18.9813 53.9933 18.9977 54.5998H21.0657C21.0579 54.2649 21.1169 53.9318 21.2395 53.62C21.362 53.3083 21.5455 53.0241 21.7793 52.7842C22.0131 52.5443 22.2924 52.3535 22.6009 52.2229C22.9093 52.0923 23.2408 52.0246 23.5757 52.0238C23.8778 52.0063 24.1801 52.054 24.4621 52.1637C24.7441 52.2734 24.9992 52.4426 25.21 52.6596C25.4208 52.8767 25.5824 53.1366 25.6838 53.4217C25.7852 53.7068 25.8241 54.0103 25.7977 54.3118C25.7844 54.7997 25.6147 55.2704 25.3137 55.6546C25.0127 56.0388 24.5963 56.3161 24.1257 56.4458L23.3997 56.7338C22.6889 56.905 22.0684 57.337 21.6609 57.9441C21.2535 58.5511 21.0889 59.2891 21.1997 60.0118L21.2217 60.7798ZM22.2117 65.5338C22.4076 65.5407 22.6028 65.5083 22.7859 65.4385C22.9691 65.3687 23.1363 65.2629 23.2778 65.1274C23.4194 64.9918 23.5323 64.8293 23.6099 64.6493C23.6875 64.4694 23.7282 64.2757 23.7297 64.0798C23.728 63.884 23.687 63.6905 23.6093 63.5108C23.5316 63.3311 23.4186 63.1688 23.2771 63.0334C23.1356 62.8981 22.9685 62.7925 22.7855 62.7228C22.6025 62.6531 22.4074 62.6208 22.2117 62.6278C22.0161 62.6208 21.821 62.6531 21.638 62.7228C21.455 62.7925 21.2878 62.8981 21.1463 63.0334C21.0048 63.1688 20.8919 63.3311 20.8142 63.5108C20.7364 63.6905 20.6955 63.884 20.6937 64.0798C20.6952 64.2757 20.736 64.4694 20.8136 64.6493C20.8912 64.8293 21.0041 64.9918 21.1456 65.1274C21.2871 65.2629 21.4544 65.3687 21.6375 65.4385C21.8206 65.5083 22.0159 65.5407 22.2117 65.5338Z" fill="white"/>
<g filter="url(#filter1_d_45_45278)">
<path d="M54 83H189C190.326 83 191.598 83.5268 192.536 84.4645C193.473 85.4021 194 86.6739 194 88V113C194 114.326 193.473 115.598 192.536 116.536C191.598 117.473 190.326 118 189 118H54C52.6739 118 51.4021 117.473 50.4645 116.536C49.5268 115.598 49 114.326 49 113V88C49 86.6739 49.5268 85.4021 50.4645 84.4645C51.4021 83.5268 52.6739 83 54 83V83Z" fill="white"/>
</g>
<path opacity="0.3" d="M118 91H92C90.3431 91 89 92.3431 89 94C89 95.6569 90.3431 97 92 97H118C119.657 97 121 95.6569 121 94C121 92.3431 119.657 91 118 91Z" fill="#5136F5"/>
<path opacity="0.15" d="M136 104H92C90.3431 104 89 105.343 89 107C89 108.657 90.3431 110 92 110H136C137.657 110 139 108.657 139 107C139 105.343 137.657 104 136 104Z" fill="#5136F5"/>
<path d="M76 86H57C54.2386 86 52 88.2386 52 91V110C52 112.761 54.2386 115 57 115H76C78.7614 115 81 112.761 81 110V91C81 88.2386 78.7614 86 76 86Z" fill="#5136F5"/>
<path d="M64.2217 103.78H66.2217L66.2437 103.01C66.2437 101.998 66.8817 101.734 67.7837 101.448C68.6885 101.19 69.4849 100.645 70.0525 99.8952C70.6201 99.1451 70.928 98.2305 70.9297 97.2898C70.9495 96.7154 70.8499 96.1432 70.6371 95.6094C70.4244 95.0755 70.1031 94.5916 69.6936 94.1884C69.2842 93.7851 68.7954 93.4713 68.2584 93.2667C67.7214 93.0621 67.1477 92.9712 66.5737 92.9998C65.9671 92.9865 65.3642 93.0967 64.8014 93.3235C64.2387 93.5503 63.7279 93.889 63.3 94.3192C62.8721 94.7493 62.536 95.2619 62.3122 95.8258C62.0883 96.3897 61.9813 96.9933 61.9977 97.5998H64.0657C64.0579 97.2649 64.1169 96.9318 64.2395 96.62C64.362 96.3083 64.5455 96.0241 64.7793 95.7842C65.0131 95.5443 65.2924 95.3535 65.6009 95.2229C65.9093 95.0923 66.2408 95.0246 66.5757 95.0238C66.8778 95.0063 67.1801 95.054 67.4621 95.1637C67.7441 95.2734 67.9992 95.4426 68.21 95.6596C68.4208 95.8767 68.5824 96.1366 68.6838 96.4217C68.7852 96.7068 68.8241 97.0103 68.7977 97.3118C68.7844 97.7997 68.6147 98.2704 68.3137 98.6546C68.0127 99.0388 67.5963 99.3161 67.1257 99.4458L66.3997 99.7338C65.6889 99.905 65.0684 100.337 64.6609 100.944C64.2535 101.551 64.0889 102.289 64.1997 103.012L64.2217 103.78ZM65.2117 108.534C65.4076 108.541 65.6028 108.508 65.7859 108.439C65.9691 108.369 66.1363 108.263 66.2778 108.127C66.4194 107.992 66.5323 107.829 66.6099 107.649C66.6875 107.469 66.7282 107.276 66.7297 107.08C66.728 106.884 66.687 106.691 66.6093 106.511C66.5316 106.331 66.4186 106.169 66.2771 106.033C66.1356 105.898 65.9685 105.792 65.7855 105.723C65.6025 105.653 65.4074 105.621 65.2117 105.628C65.0161 105.621 64.821 105.653 64.638 105.723C64.455 105.792 64.2878 105.898 64.1463 106.033C64.0048 106.169 63.8919 106.331 63.8142 106.511C63.7364 106.691 63.6955 106.884 63.6937 107.08C63.6952 107.276 63.736 107.469 63.8136 107.649C63.8912 107.829 64.0041 107.992 64.1456 108.127C64.2871 108.263 64.4544 108.369 64.6375 108.439C64.8206 108.508 65.0159 108.541 65.2117 108.534Z" fill="white"/>
<g filter="url(#filter2_d_45_45278)">
<path d="M11 126H146C147.326 126 148.598 126.527 149.536 127.464C150.473 128.402 151 129.674 151 131V156C151 157.326 150.473 158.598 149.536 159.536C148.598 160.473 147.326 161 146 161H11C9.67392 161 8.40215 160.473 7.46447 159.536C6.52678 158.598 6 157.326 6 156V131C6 129.674 6.52678 128.402 7.46447 127.464C8.40215 126.527 9.67392 126 11 126V126Z" fill="white"/>
</g>
<path opacity="0.3" d="M75 134H49C47.3431 134 46 135.343 46 137C46 138.657 47.3431 140 49 140H75C76.6569 140 78 138.657 78 137C78 135.343 76.6569 134 75 134Z" fill="#5136F5"/>
<path opacity="0.15" d="M93 147H49C47.3431 147 46 148.343 46 150C46 151.657 47.3431 153 49 153H93C94.6569 153 96 151.657 96 150C96 148.343 94.6569 147 93 147Z" fill="#5136F5"/>
<path d="M33 129H14C11.2386 129 9 131.239 9 134V153C9 155.761 11.2386 158 14 158H33C35.7614 158 38 155.761 38 153V134C38 131.239 35.7614 129 33 129Z" fill="#5136F5"/>
<path d="M21.2217 146.78H23.2217L23.2437 146.01C23.2437 144.998 23.8817 144.734 24.7837 144.448C25.6885 144.19 26.4849 143.645 27.0525 142.895C27.6201 142.145 27.928 141.23 27.9297 140.29C27.9495 139.715 27.8499 139.143 27.6371 138.609C27.4244 138.076 27.1031 137.592 26.6936 137.188C26.2842 136.785 25.7954 136.471 25.2584 136.267C24.7214 136.062 24.1477 135.971 23.5737 136C22.9671 135.987 22.3642 136.097 21.8014 136.323C21.2387 136.55 20.7279 136.889 20.3 137.319C19.8721 137.749 19.536 138.262 19.3122 138.826C19.0883 139.39 18.9813 139.993 18.9977 140.6H21.0657C21.0579 140.265 21.1169 139.932 21.2395 139.62C21.362 139.308 21.5455 139.024 21.7793 138.784C22.0131 138.544 22.2924 138.353 22.6009 138.223C22.9093 138.092 23.2408 138.025 23.5757 138.024C23.8778 138.006 24.1801 138.054 24.4621 138.164C24.7441 138.273 24.9992 138.443 25.21 138.66C25.4208 138.877 25.5824 139.137 25.6838 139.422C25.7852 139.707 25.8241 140.01 25.7977 140.312C25.7844 140.8 25.6147 141.27 25.3137 141.655C25.0127 142.039 24.5963 142.316 24.1257 142.446L23.3997 142.734C22.6889 142.905 22.0684 143.337 21.6609 143.944C21.2535 144.551 21.0889 145.289 21.1997 146.012L21.2217 146.78ZM22.2117 151.534C22.4076 151.541 22.6028 151.508 22.7859 151.439C22.9691 151.369 23.1363 151.263 23.2778 151.127C23.4194 150.992 23.5323 150.829 23.6099 150.649C23.6875 150.469 23.7282 150.276 23.7297 150.08C23.728 149.884 23.687 149.691 23.6093 149.511C23.5316 149.331 23.4186 149.169 23.2771 149.033C23.1356 148.898 22.9685 148.792 22.7855 148.723C22.6025 148.653 22.4074 148.621 22.2117 148.628C22.0161 148.621 21.821 148.653 21.638 148.723C21.455 148.792 21.2878 148.898 21.1463 149.033C21.0048 149.169 20.8919 149.331 20.8142 149.511C20.7364 149.691 20.6955 149.884 20.6937 150.08C20.6952 150.276 20.736 150.469 20.8136 150.649C20.8912 150.829 21.0041 150.992 21.1456 151.127C21.2871 151.263 21.4544 151.369 21.6375 151.439C21.8206 151.508 22.0159 151.541 22.2117 151.534Z" fill="white"/>
<defs>
<filter id="filter0_d_45_45278" x="0" y="37" width="157" height="47" filterUnits="userSpaceOnUse" color-interpolation-filters="sRGB">
<feFlood flood-opacity="0" result="BackgroundImageFix"/>
<feColorMatrix in="SourceAlpha" type="matrix" values="0 0 0 0 0 0 0 0 0 0 0 0 0 0 0 0 0 0 127 0" result="hardAlpha"/>
<feOffset dy="3"/>
<feGaussianBlur stdDeviation="3"/>
<feColorMatrix type="matrix" values="0 0 0 0 0 0 0 0 0 0 0 0 0 0 0 0 0 0 0.161 0"/>
<feBlend mode="normal" in2="BackgroundImageFix" result="effect1_dropShadow_45_45278"/>
<feBlend mode="normal" in="SourceGraphic" in2="effect1_dropShadow_45_45278" result="shape"/>
</filter>
<filter id="filter1_d_45_45278" x="43" y="80" width="157" height="47" filterUnits="userSpaceOnUse" color-interpolation-filters="sRGB">
<feFlood flood-opacity="0" result="BackgroundImageFix"/>
<feColorMatrix in="SourceAlpha" type="matrix" values="0 0 0 0 0 0 0 0 0 0 0 0 0 0 0 0 0 0 127 0" result="hardAlpha"/>
<feOffset dy="3"/>
<feGaussianBlur stdDeviation="3"/>
<feColorMatrix type="matrix" values="0 0 0 0 0 0 0 0 0 0 0 0 0 0 0 0 0 0 0.161 0"/>
<feBlend mode="normal" in2="BackgroundImageFix" result="effect1_dropShadow_45_45278"/>
<feBlend mode="normal" in="SourceGraphic" in2="effect1_dropShadow_45_45278" result="shape"/>
</filter>
<filter id="filter2_d_45_45278" x="0" y="123" width="157" height="47" filterUnits="userSpaceOnUse" color-interpolation-filters="sRGB">
<feFlood flood-opacity="0" result="BackgroundImageFix"/>
<feColorMatrix in="SourceAlpha" type="matrix" values="0 0 0 0 0 0 0 0 0 0 0 0 0 0 0 0 0 0 127 0" result="hardAlpha"/>
<feOffset dy="3"/>
<feGaussianBlur stdDeviation="3"/>
<feColorMatrix type="matrix" values="0 0 0 0 0 0 0 0 0 0 0 0 0 0 0 0 0 0 0.161 0"/>
<feBlend mode="normal" in2="BackgroundImageFix" result="effect1_dropShadow_45_45278"/>
<feBlend mode="normal" in="SourceGraphic" in2="effect1_dropShadow_45_45278" result="shape"/>
</filter>
<linearGradient id="paint0_linear_45_45278" x1="9.75475" y1="93" x2="137.976" y2="160.635" gradientUnits="userSpaceOnUse">
<stop stop-color="#452BFF"/>
<stop offset="0.486792" stop-color="#DA61B1"/>
<stop offset="1" stop-color="#FF7F2C"/>
</linearGradient>
<linearGradient id="paint1_linear_45_45278" x1="9.75475" y1="93" x2="137.976" y2="160.635" gradientUnits="userSpaceOnUse">
<stop stop-color="#452BFF"/>
<stop offset="0.486792" stop-color="#DA61B1"/>
<stop offset="1" stop-color="#FF7F2C"/>
</linearGradient>
</defs>
</svg>
