<svg width="200" height="194" viewBox="0 0 200 194" fill="none" xmlns="http://www.w3.org/2000/svg">
<path d="M163.573 48.4128L162.858 47.251C156.839 37.4559 145.955 31.5511 134.481 32.2677C133.006 32.3597 131.537 32.5568 130.088 32.8632C119.655 35.0682 110.578 42.8588 106.815 52.8363C104.602 58.704 103.984 65.4602 99.7845 70.1176C94.3192 76.1792 85.0402 76.3696 76.8825 76.1185C68.7248 75.8674 59.4397 76.0814 54.001 82.1672C50.5948 85.9783 49.5121 91.3984 49.7868 96.5024C50.5142 110.016 60.0498 122.098 72.1769 128.104C84.3044 134.11 98.5826 134.648 111.855 132.006C130.448 128.305 148.13 118.141 158.758 102.443C169.386 86.7441 172.076 65.3568 163.573 48.4128Z" fill="#ECECEC"/>
<path d="M150.686 164.709C157.751 163.868 163.017 162.9 166.503 161.877C168.251 161.364 169.513 160.848 170.324 160.35C171.178 159.825 171.333 159.446 171.333 159.27C171.333 159.094 171.178 158.715 170.324 158.19C169.513 157.692 168.252 157.176 166.504 156.663C163.018 155.64 157.752 154.672 150.686 153.831C122.426 150.468 76.5746 150.468 48.3137 153.831C41.2484 154.672 35.9826 155.64 32.4965 156.663C30.7485 157.176 29.4869 157.692 28.6763 158.19C27.8224 158.715 27.6667 159.094 27.6667 159.27C27.6667 159.446 27.8223 159.825 28.6762 160.35C29.4868 160.848 30.7484 161.364 32.4964 161.877C35.9825 162.9 41.2482 163.868 48.3134 164.709C76.5739 168.072 122.425 168.072 150.686 164.709Z" fill="url(#paint0_linear_109_56387)" stroke="url(#paint1_linear_109_56387)" stroke-width="1.33333"/>
<path d="M102.769 56.6408V54.9415H102.768C102.763 54.7798 102.65 54.6159 102.428 54.4886L92.1614 48.5967C91.7257 48.3468 91.0192 48.3468 90.5832 48.5967L61.0692 65.5345C60.8474 65.6618 60.7343 65.826 60.7291 65.9875H60.7275V67.6868H60.7291C60.7343 67.8485 60.8474 68.0125 61.0692 68.1397L71.3356 74.0313C71.7716 74.2815 72.4781 74.2815 72.9138 74.0313L102.428 57.0938C102.65 56.9665 102.763 56.8023 102.768 56.6408H102.769Z" fill="#F0F0F0"/>
<path d="M61.0692 66.4404L71.3356 72.332C71.7716 72.5822 72.4781 72.5822 72.9138 72.332L102.428 55.3944C102.864 55.1442 102.864 54.7388 102.428 54.4886L92.1613 48.5966C91.7256 48.3467 91.0191 48.3467 90.5831 48.5966L61.0692 65.5345C60.6332 65.7847 60.6332 66.1902 61.0692 66.4404Z" fill="#FAFAFA"/>
<path d="M72.1234 72.521V74.2203C71.839 74.2203 71.5546 74.155 71.3361 74.0321L61.0682 68.1407C60.8458 68.0141 60.733 67.8474 60.7293 67.6878H60.7256V65.9885H60.7293C60.7314 65.9241 60.757 65.8591 60.7937 65.7962C60.6747 66.0153 60.7644 66.2674 61.0682 66.4418L71.3361 72.3328C71.5512 72.4594 71.839 72.521 72.1234 72.521Z" fill="#E0E0E0"/>
<path d="M77.6396 58.1508L86.338 63.1097L100.708 54.8631L92.0102 49.9036L77.6396 58.1508Z" fill="#E0E0E0"/>
<path d="M86.4361 62.7325L78.0456 57.9175C78.2644 57.2954 78.248 56.5695 78 55.7415L86.3372 60.5057C86.3372 60.5057 86.4965 61.0311 86.4361 62.7325Z" fill="white"/>
<path d="M85.909 59.8262C86.3543 60.0816 86.7154 60.7031 86.7154 61.214V62.8356C86.7154 63.3468 86.3543 63.5539 85.909 63.2984L77.6396 58.5527L77.6387 58.1509L85.7978 62.8036C86.0646 62.957 86.2812 62.8325 86.2809 62.526L86.2732 61.0232C86.2729 60.7167 86.0563 60.3438 85.7889 60.1904L77.6396 55.5356V55.0805L85.909 59.8262Z" fill="#EBEBEB"/>
<path d="M77.6406 55.0812L92.0106 46.8346L100.279 51.5797C100.724 51.8351 101.085 52.4569 101.085 52.9678L101.086 54.5894C101.085 54.8439 100.996 55.0236 100.849 55.1077L86.4795 63.3546C86.6261 63.2702 86.7152 63.0909 86.7158 62.8364L86.717 61.2135C86.717 60.7029 86.3559 60.0811 85.9107 59.8257L77.6406 55.0812Z" fill="#FAFAFA"/>
<path d="M86.4801 60.424C86.6261 60.6752 86.7164 60.9583 86.7164 61.2138L86.7152 62.8367C86.7145 63.0912 86.6252 63.2705 86.4785 63.3546L100.848 55.108C100.995 55.0239 101.085 54.8442 101.085 54.5897L101.085 52.9681C101.085 52.7126 100.994 52.4295 100.848 52.1784L86.4801 60.424Z" fill="#F0F0F0"/>
<path d="M68.7952 45.8097L68.7139 46.9081L78.425 52.1169L78.6441 51.4779L68.7952 45.8097Z" fill="#EBEBEB"/>
<path d="M78.5155 51.7321L69.1088 46.302L67.4727 47.2464L77.0649 52.8583L78.5155 51.7321Z" fill="white"/>
<path d="M75.2981 52.2762L74.3682 63.177C74.3682 63.4001 74.5238 63.6697 74.7157 63.7813L80.1729 66.9395C80.2521 66.9851 80.3529 67.0119 80.4561 67.0203L77.0649 53.2126C76.9613 53.2046 76.8609 53.179 76.7814 53.1334L76.3882 52.9054L75.2981 52.2762Z" fill="#E0E0E0"/>
<path d="M77.4792 53.1336L78.4516 52.3005L79.1665 51.6882C79.2392 51.5717 79.3245 51.4848 79.2786 51.3893L82.6245 65.0974L82.6301 65.1082C82.6769 65.205 82.6893 65.4201 82.5577 65.4955L80.8707 66.9397C80.7564 67.0057 80.602 67.0322 80.4557 67.0201L77.0645 53.2128C77.2105 53.2248 77.3652 53.198 77.4792 53.1336Z" fill="#F0F0F0"/>
<path d="M79.1661 51.2854C79.3586 51.3966 79.3109 51.5208 79.1661 51.6881L77.4785 53.1335C77.2856 53.2444 76.9734 53.2444 76.7809 53.1335L75.2969 52.2766C75.1044 52.1654 75.0705 52.0045 75.2212 51.9179C75.3718 51.831 75.6498 51.8505 75.8423 51.9617L77.0135 52.6377C77.0776 52.6747 77.1817 52.6747 77.2458 52.6377L78.4793 51.567C78.5433 51.53 78.5433 51.4699 78.4793 51.4329L68.7949 45.8097L69.259 45.5419L79.1661 51.2854Z" fill="#FAFAFA"/>
<path d="M65.9922 46.3364L75.2458 51.682V69.2858L65.9922 63.9414V46.3364Z" fill="#EBEBEB"/>
<path d="M74.9477 51.9736L65.9921 46.8341C65.5306 47.3672 64.8468 47.7397 63.9443 47.9535L72.8238 53.0712C72.8238 53.0712 73.3976 52.9368 74.9477 51.9736Z" fill="white"/>
<path d="M71.9639 53.041C72.439 53.3137 73.2096 53.3137 73.6848 53.041L75.1927 52.1754C75.6679 51.9028 75.6679 51.4606 75.1927 51.1879L66.3665 46.1227L65.9925 46.3362L74.6732 51.3497C74.9582 51.5133 74.9582 51.7783 74.6729 51.9419L73.2716 52.7368C72.9863 52.9002 72.5238 52.8998 72.2387 52.7362L63.5611 47.7326L63.1377 47.9757L71.9639 53.041Z" fill="#FAFAFA"/>
<path d="M63.1387 47.9752V65.5792L71.964 70.6439C72.4391 70.9166 73.21 70.9166 73.6851 70.6439L75.1934 69.7787C75.4297 69.6425 75.549 69.4647 75.549 69.285V51.681C75.549 51.8606 75.4297 52.0384 75.1934 52.1746L73.6851 53.042C73.21 53.3144 72.4391 53.3144 71.964 53.042L63.1387 47.9752Z" fill="#EBEBEB"/>
<path d="M72.8242 53.2466C73.1357 53.2466 73.4472 53.1785 73.6845 53.0423L75.1931 52.1749C75.4294 52.0387 75.5486 51.8609 75.5486 51.6813V69.2853C75.5486 69.465 75.4294 69.6428 75.1931 69.7789L73.6845 70.6442C73.4472 70.7807 73.1357 70.8484 72.8242 70.8488V53.2466Z" fill="#F0F0F0"/>
<path d="M104.331 154.878L81.6031 168L56.0098 153.19L78.7376 140.069L104.331 154.878Z" fill="#654DFC"/>
<path d="M78.7379 122.282L78.7376 140.069L56.0098 153.191L56.0101 135.403L78.7379 122.282Z" fill="#654DFC"/>
<path d="M81.6031 150.212V168L56.0098 153.19L56.0101 135.403L81.6031 150.212Z" fill="#5136F5"/>
<path d="M104.331 137.09V154.878L78.7373 140.069L78.7376 122.282L104.331 137.09Z" fill="#654DFC"/>
<path d="M104.331 154.878V137.09L81.6035 150.211V167.999L104.331 154.878Z" fill="#5136F5"/>
<path d="M78.7383 122.282L78.77 112.434L104.3 127.261L104.331 137.09L78.7383 122.282Z" fill="#5136F5"/>
<path d="M81.6035 150.212L83.7348 141.597L106.257 128.594L104.331 137.09L81.6035 150.212Z" fill="#5136F5"/>
<path d="M56.01 135.404L53.2988 126.469L76.0263 113.347L78.7378 122.282L56.01 135.404Z" fill="#5136F5"/>
<path d="M56.0106 135.403L50.6631 128.019L76.2586 142.827L81.6036 150.212L56.0106 135.403Z" fill="#5136F5"/>
<g opacity="0.699997">
<g opacity="0.699997">
<path opacity="0.699997" d="M88.2942 162.708C88.2168 162.708 88.1543 162.646 88.1543 162.569V159.439C88.1543 159.362 88.2168 159.299 88.2942 159.299C88.3712 159.299 88.4338 159.362 88.4338 159.439V162.569C88.4338 162.646 88.3712 162.708 88.2942 162.708Z" fill="white"/>
</g>
<g opacity="0.699997">
<path opacity="0.699997" d="M87.8848 160.524C87.8663 160.524 87.8475 160.52 87.8293 160.512C87.7584 160.482 87.7261 160.399 87.7566 160.328L88.2539 159.18L88.8085 159.82C88.8588 159.879 88.8526 159.967 88.794 160.018C88.7361 160.067 88.6477 160.062 88.5972 160.004L88.3337 159.699L88.0133 160.439C87.9902 160.492 87.939 160.524 87.8848 160.524Z" fill="white"/>
</g>
<g opacity="0.699997">
<path opacity="0.699997" d="M89.5849 161.972C89.5079 161.972 89.4453 161.909 89.4453 161.832V158.703C89.4453 158.626 89.5079 158.563 89.5849 158.563C89.6622 158.563 89.7248 158.626 89.7248 158.703V161.832C89.7248 161.909 89.6622 161.972 89.5849 161.972Z" fill="white"/>
</g>
<g opacity="0.699997">
<path opacity="0.699997" d="M89.1768 159.786C89.1583 159.786 89.1395 159.783 89.1213 159.775C89.0504 159.744 89.0181 159.662 89.0486 159.591L89.5456 158.444L90.0999 159.083C90.1504 159.142 90.1443 159.23 90.0857 159.28C90.0272 159.331 89.9397 159.324 89.8888 159.267L89.6254 158.962L89.3053 159.702C89.2821 159.755 89.2307 159.786 89.1768 159.786Z" fill="white"/>
</g>
</g>
<g opacity="0.699997">
<g opacity="0.699997">
<path opacity="0.699997" d="M84.5708 164.834C84.5163 164.834 84.4645 164.821 84.4183 164.795C84.312 164.734 84.251 164.612 84.251 164.459V164.076C84.251 163.999 84.3135 163.936 84.3909 163.936C84.4682 163.936 84.5304 163.999 84.5304 164.076V164.459C84.5304 164.516 84.5462 164.546 84.5569 164.551C84.5671 164.559 84.6001 164.556 84.6481 164.527C84.7714 164.456 84.9079 164.179 84.9079 163.896V162.294C84.9079 162.217 84.9704 162.154 85.0478 162.154C85.1248 162.154 85.1874 162.217 85.1874 162.294V163.896C85.1874 164.261 85.0167 164.636 84.7899 164.769C84.7166 164.812 84.6414 164.834 84.5708 164.834Z" fill="white"/>
</g>
<g opacity="0.699997">
<path opacity="0.699997" d="M85.7221 160.232C85.5116 160.232 85.2743 160.305 85.0257 160.449C84.1885 160.932 83.4952 162.057 83.392 163.052L86.5315 161.239C86.5152 160.802 86.3636 160.481 86.1001 160.328C85.9886 160.264 85.8613 160.232 85.7221 160.232ZM83.0996 163.543V163.301C83.0996 162.164 83.9007 160.775 84.8858 160.207C85.3896 159.916 85.8709 159.873 86.2397 160.086C86.6088 160.3 86.8122 160.738 86.8122 161.319V161.4L83.0996 163.543Z" fill="white"/>
</g>
</g>
<g opacity="0.699997">
<g opacity="0.699997">
<path opacity="0.699997" d="M50.6621 128.019L76.2576 142.827L81.6027 150.212L75.9732 143.087L50.6621 128.019Z" fill="white"/>
</g>
</g>
<g opacity="0.699997">
<g opacity="0.699997">
<path opacity="0.699997" d="M104.331 137.09L81.6035 150.212V168L82.0275 150.569L104.331 137.09Z" fill="white"/>
</g>
</g>
<path d="M72.9737 112.496C75.3185 112.157 77.4606 110.655 78.82 108.747C79.4526 107.86 79.9336 106.865 80.2066 105.808C80.4568 104.838 80.597 103.749 80.3493 102.764C79.9256 101.075 78.3603 100.073 76.7051 99.8615C75.8707 99.7549 75.007 99.8322 74.2108 100.107C73.3626 100.4 72.6699 100.934 72.1473 101.662C71.8759 102.041 71.5912 102.511 71.5785 102.991C71.5677 103.409 71.8669 103.708 72.2681 103.776C72.7525 103.859 73.2636 103.652 73.6781 103.419C74.1893 103.132 74.6277 102.756 74.9931 102.298C75.7397 101.363 76.376 100.22 76.7011 99.0622C76.9818 98.062 76.9214 96.9697 76.7072 95.9634C76.4885 94.9349 76.062 93.8842 75.3093 93.1287C74.5217 92.338 73.3961 91.947 72.3103 91.805C71.2088 91.6608 70.0505 91.7603 68.9992 92.1239C68.5466 92.2804 68.0792 92.4893 67.7279 92.8184C67.4635 93.0661 67.1613 93.4738 67.2694 93.8728C67.3893 94.3171 67.9621 94.4505 68.3592 94.3994C68.9394 94.3248 69.4922 93.964 69.9033 93.5637C70.3556 93.1225 70.7629 92.5836 71.0636 92.0274C71.2858 91.617 71.4217 91.1607 71.4124 90.6911C71.3724 88.7354 69.2137 87.4718 67.5208 87.1153C67.0614 87.0186 66.598 86.9884 66.1306 87.0238C65.9734 87.0358 66.0693 87.282 66.1965 87.2725C67.0855 87.2053 68.0006 87.4724 68.7894 87.8659C69.5545 88.248 70.2826 88.8128 70.7031 89.5711C71.1265 90.3343 71.0775 91.2121 70.631 91.955C70.3257 92.4634 69.9553 92.9795 69.515 93.3795C69.148 93.7132 68.5968 94.0971 68.0742 94.0595C67.9211 94.0481 67.7264 93.9754 67.6681 93.8047C67.5994 93.6032 67.7525 93.3687 67.8518 93.2451C68.1013 92.9355 68.4831 92.7484 68.8464 92.587C69.7492 92.1864 70.7906 92.0561 71.7699 92.1072C72.7787 92.1602 73.8284 92.42 74.6487 93.0341C75.419 93.6115 75.8722 94.5057 76.1461 95.4094C76.4293 96.3439 76.5482 97.3663 76.4161 98.3375C76.2817 99.3263 75.8106 100.273 75.2988 101.117C74.7285 102.058 74.0127 102.955 72.9407 103.336C72.6757 103.43 72.1211 103.569 72.0151 103.183C71.9107 102.802 72.2123 102.325 72.4083 102.026C72.8529 101.347 73.4482 100.821 74.201 100.513C74.9066 100.224 75.6889 100.116 76.4478 100.173C77.8991 100.283 79.3725 101.041 79.8778 102.483C80.1739 103.327 80.1135 104.266 79.9558 105.133C79.7811 106.091 79.4243 107.015 78.9359 107.857C77.8883 109.662 76.2518 111.017 74.3482 111.845C73.8919 112.043 73.418 112.208 72.946 112.364C72.8964 112.381 72.9182 112.504 72.9737 112.496Z" fill="#FF7F2C"/>
<path d="M63.1791 85.744C61.9302 85.6562 60.2485 86.6253 60.8524 87.3346C61.4563 88.0436 63.0601 86.8964 63.0601 86.8964C63.0601 86.8964 62.9091 88.3295 63.4336 88.4916C63.9583 88.6534 64.6522 87.2884 64.1413 86.4142C64.1413 86.4142 64.9292 86.7639 65.6733 86.2152C66.4174 85.6667 65.628 85.1506 64.5776 85.2424C64.5776 85.2424 65.3295 82.7851 63.8107 83.2495C63.0601 83.479 62.7905 84.3707 63.1791 85.744Z" fill="#5136F5"/>
<path d="M64.3255 86.2673C64.2587 86.2001 64.185 86.1379 64.1102 86.0799C64.002 85.9967 63.8895 85.9179 63.7795 85.8371C63.6745 85.7601 63.5635 85.6923 63.4492 85.6304C63.383 85.5943 63.3155 85.5607 63.2465 85.5302C63.1396 85.484 63.0474 85.4664 62.9307 85.4815C62.8219 85.4954 62.7254 85.619 62.8065 85.7222C62.9035 85.8454 63.0225 85.8692 63.1303 85.9246C63.1864 85.9536 63.2419 85.9844 63.2967 86.0164C63.4095 86.0827 63.513 86.16 63.6187 86.2374C63.7235 86.3147 63.8322 86.3871 63.9358 86.4663C64.0994 86.5911 64.2658 86.7156 64.462 86.7855C64.4796 86.7917 64.5024 86.7886 64.516 86.7754C64.646 86.6506 64.4161 86.3585 64.3255 86.2673Z" fill="#455A64"/>
<path d="M116.74 76.3875C115.392 78.198 113.591 88.1606 112.909 91.354C109.634 91.2591 105.252 91.1065 103.593 90.9318C101.755 90.7386 97.7981 90.3606 95.861 90.6141C91.0515 91.2436 91.2428 94.3911 91.3543 95.2144C91.4825 96.1601 92.1573 96.5896 94.7308 96.0023C95.3076 95.8707 95.9026 95.8063 96.4938 95.7946C96.7453 95.7894 97.2703 95.6698 97.4672 95.8828C97.7633 96.2023 96.8867 96.7067 96.6645 96.8503C96.3219 97.0712 95.9651 97.3519 95.8927 97.7528C95.8659 97.9019 95.8942 98.0788 96.0215 98.161C96.134 98.2331 96.2809 98.2069 96.4106 98.1761C97.5908 97.8976 98.7336 97.4625 99.7997 96.8863C100.214 96.6626 100.62 96.4161 101.068 96.2716C101.737 96.0556 102.425 96.1844 103.099 96.1844C104.543 96.1844 112.18 96.9402 115.576 97.286C117.927 97.5254 118.178 95.2021 118.988 92.8536C119.995 89.9326 122.353 74.5963 122.353 74.5963C119.975 74.2568 118.341 74.2364 116.74 76.3875Z" fill="#F1C1B9"/>
<path d="M122.389 74.3618C121.251 74.1535 118.695 73.8346 117.301 75.39C115.906 76.9457 115.578 78.5812 114.964 80.9347C114.35 83.2881 113.273 87.5165 113.273 87.5165C113.273 87.5165 115.068 90.094 120.693 89.3637L122.389 74.3618Z" fill="#5136F5"/>
<path d="M136.51 155.836L132.556 155.84L131.421 147.256L136.409 147.061L136.51 155.836Z" fill="#FFA8A7"/>
<path d="M123.387 151.551C122.712 152.717 120.554 152.622 118.753 152.209L118.546 143.772L123.833 143.565L123.387 151.551Z" fill="#FFA8A7"/>
<path d="M136.241 101.613C136.384 105.263 135.901 126.854 135.901 126.854C136.032 127.901 137.116 129.729 137.343 133.509C137.672 138.991 136.552 150.717 136.552 150.717C136.552 150.717 134.288 151.901 131.849 150.994C131.849 150.994 129.364 134.037 128.466 128.633C127.682 123.917 126.677 111.272 126.677 111.272L124.726 127.481C124.726 127.481 125.272 130.044 125.168 133.301C125.088 135.82 123.653 148.059 123.653 148.059C123.653 148.059 121.243 148.961 118.594 148.181C118.594 148.181 117.415 129.187 117.281 126.884C117.127 124.259 117.232 101.086 117.232 101.086L136.241 101.613Z" fill="#7D99FE"/>
<g opacity="0.199997">
<g opacity="0.199997">
<path opacity="0.199997" d="M126.677 111.273C126.677 111.273 123.224 110.295 120.87 108.192C120.87 108.192 121.972 110.075 125.097 111.745L124.918 125.891L126.677 111.273Z" fill="black"/>
</g>
</g>
<path d="M128.038 162.995C127.91 163.125 127.984 163.976 128.139 164.2C128.306 164.44 129.237 165.174 130.871 165.226C132.433 165.277 133.815 165.012 134.706 164.396C135.597 163.78 136.015 163.122 136.066 162.232C136.118 161.342 135.985 160.49 136.381 159.79C136.747 159.144 137.341 158.41 137.464 158.062C137.729 157.307 137.403 156.255 137.403 156.255L128.038 162.995Z" fill="#263238"/>
<path d="M131.997 155.084C132 155.429 131.951 155.745 131.856 156.078C131.657 156.775 131.34 157.436 130.979 158.067C130.793 158.392 130.596 158.711 130.366 159.008C129.917 159.587 129.35 160.07 128.872 160.627C128.395 161.184 127.997 161.853 127.986 162.577C127.967 163.8 129.309 164.163 130.337 164.305C131.434 164.456 132.595 164.353 133.647 164.008C134.817 163.626 135.635 162.676 135.785 161.487C135.828 161.146 135.793 160.8 135.82 160.457C135.881 159.675 136.256 158.948 136.686 158.283C136.936 157.897 137.209 157.52 137.369 157.092C137.658 156.323 137.37 155.483 137.137 154.738C136.935 154.094 136.709 153.366 136.483 153.436C136.483 153.777 136.497 153.808 136.264 154.047C135.969 154.348 135.972 154.783 135.659 155.051C135.795 154.649 135.798 154.481 135.852 154.174C135.868 154.082 135.837 153.898 135.77 153.831C135.68 153.741 135.532 153.688 135.387 153.645C134.9 153.502 134.398 153.408 133.891 153.366C133.428 153.327 132.896 153.292 132.443 153.412C132.304 153.449 132.17 153.522 132.088 153.637C132.001 153.758 131.988 153.863 131.974 154.059C131.96 154.255 131.995 154.759 131.997 155.084Z" fill="#455A64"/>
<path d="M130.825 158.329C131.266 157.971 132.285 157.926 132.844 157.964C133.545 158.012 134.119 158.234 134.45 158.458C134.596 158.557 134.795 158.531 134.915 158.403C135.059 158.248 135.036 158.004 134.86 157.885C134.51 157.648 133.881 157.32 133.052 157.295C131.677 157.252 131.284 157.503 131.284 157.503C131.284 157.503 130.674 157.93 130.825 158.329Z" fill="#F5F5F5"/>
<path d="M129.828 159.622C130.387 159.262 131.509 159.266 132.069 159.304C132.77 159.351 133.302 159.605 133.632 159.829C133.779 159.929 133.977 159.903 134.097 159.774C134.242 159.62 134.219 159.376 134.042 159.257C133.693 159.02 133.023 158.641 132.194 158.615C130.819 158.572 130.472 158.866 130.472 158.866C130.472 158.866 129.903 159.113 129.828 159.622Z" fill="#F5F5F5"/>
<path d="M133.546 155.961C132.594 155.901 132.197 156.022 131.827 156.173C131.591 156.318 131.447 156.706 131.606 156.797C131.905 156.615 132.452 156.524 133.126 156.527C133.579 156.529 134.155 156.69 134.625 156.876C134.744 156.924 134.886 156.991 135.01 157.054C135.178 157.138 135.384 157.066 135.456 156.896C135.517 156.752 135.461 156.585 135.322 156.509C134.982 156.321 134.314 156.01 133.546 155.961Z" fill="#F5F5F5"/>
<path d="M109.73 156.811C109.588 157.075 109.602 157.583 109.74 157.911C109.878 158.239 111.509 159.264 113.777 159.219C116.045 159.174 117.641 158.336 118.53 157.806C119.418 157.277 120.321 157.213 121.444 157.202C122.566 157.191 124.063 156.703 124.333 156.191C124.604 155.679 124.364 154.763 124.364 154.763L109.73 156.811Z" fill="#263238"/>
<path d="M119.188 150.189C119.13 150.173 119.071 150.158 119.011 150.143C118.914 150.119 118.812 150.095 118.714 150.113C118.602 150.134 118.507 150.208 118.425 150.288C118.17 150.541 118.007 150.87 117.805 151.168C117.294 151.918 116.269 152.511 115.155 153.043C114.398 153.405 113.66 153.679 112.88 153.986C112.086 154.298 111.043 154.463 110.415 154.844C109.5 155.401 109.314 156.897 110.297 157.539C111.144 158.092 113.412 158.755 115.851 158.188C117.179 157.879 118.701 156.547 120.427 156.495C121.526 156.461 123.609 156.252 124.353 155.454C124.631 155.099 124.339 153.914 124.101 152.892C123.842 151.776 123.96 150.107 123.463 150.126L123.432 150.683C123.385 150.851 122.992 151.014 122.871 151.142C122.723 151.298 122.574 151.455 122.426 151.611C122.232 151.816 122.031 152.026 121.774 152.141C121.331 152.339 120.817 152.221 120.348 152.1C120.326 152.094 120.585 151.242 120.611 151.16C120.632 151.092 120.655 151.02 120.637 150.952C120.618 150.883 120.561 150.832 120.504 150.788C120.096 150.472 119.667 150.316 119.188 150.189Z" fill="#455A64"/>
<path d="M116.205 152.496C116.205 152.496 116.382 152.084 117.039 151.994C117.541 151.925 118.403 152.333 118.928 152.81C119.143 153.005 119.097 153.353 118.837 153.481C118.682 153.558 118.498 153.527 118.373 153.408C118.03 153.079 117.253 152.474 116.205 152.496Z" fill="#F5F5F5"/>
<path d="M114.622 153.288C114.622 153.288 114.967 152.8 115.603 152.84C115.603 152.84 116.901 152.939 117.67 153.727C117.866 153.928 117.837 154.253 117.584 154.377C117.434 154.45 117.257 154.42 117.138 154.303C116.791 153.962 116.096 153.248 114.622 153.288Z" fill="#F5F5F5"/>
<path d="M112.881 153.986C112.881 153.986 113.261 153.548 113.896 153.587C113.896 153.587 115.106 153.69 115.875 154.479C116.071 154.679 116.041 155.004 115.789 155.128C115.638 155.201 115.461 155.171 115.342 155.054C114.995 154.714 114.355 153.946 112.881 153.986Z" fill="#F5F5F5"/>
<path d="M128.979 74.4294C130.434 74.5949 132.155 74.6849 133.543 74.867C135.333 75.1021 136.731 76.9539 137.166 79.8176C137.647 82.9743 135.636 92.0205 135.636 92.0205L136.281 102.687C133.657 104.62 122.492 105.634 116.926 101.615C116.926 101.615 117.056 83.4599 117.491 80.6733C118.089 76.8399 119.024 74.4569 123.349 74.182L128.979 74.4294Z" fill="#5136F5"/>
<path d="M138.921 97.5401C138.449 98.3289 137.975 99.1164 137.488 99.896C137.308 100.184 137.127 100.473 136.938 100.756C136.87 100.857 136.679 101.061 136.583 101.128C136.349 101.289 135.863 101.187 135.58 101.197C134.188 101.242 132.798 101.344 131.415 101.5C131.185 101.526 130.925 101.572 130.801 101.766C130.659 101.989 130.784 102.302 130.997 102.456C131.211 102.61 131.485 102.646 131.747 102.677L132.95 102.822C133.119 102.842 133.298 102.866 133.43 102.974C133.867 103.329 133.033 103.754 132.782 103.927C132.281 104.272 131.745 104.576 131.184 104.813C128.68 105.868 128.374 106.633 128.835 107.5C129.236 108.255 130.968 111.001 135.367 108.637C137.138 107.685 139.836 104.678 141.063 103.224C142.834 101.125 145.825 96.4404 145.825 96.4404C147.525 94.1045 147.746 93.1462 147.784 92.1732C147.821 91.2001 142.543 83.7373 140.754 81.1171C138.965 78.4968 138.107 75.3049 133.543 74.8674C133.543 74.8674 131.807 80.3776 134.683 83.9429L141.329 93.2128C141.329 93.2128 139.568 96.4573 138.921 97.5401Z" fill="#F1C1B9"/>
<path d="M143.741 84.6795C142.889 83.4467 141.999 82.1778 141.138 80.921C137.519 75.6379 137.822 74.6704 132.603 74.5958C132.141 75.306 131.866 78.354 132.562 81.4177C133.147 83.9917 135.326 85.8054 135.326 85.8054L137.941 89.3463C137.941 89.3463 139.539 89.2973 141.457 87.8914C143.374 86.4854 143.741 84.6795 143.741 84.6795Z" fill="#5136F5"/>
<path d="M132.417 60.5441C131.433 59.1665 129.999 59.4037 129.999 59.4037L129.73 66.0192L129.293 68.4626L129.37 71.1812C129.37 71.1812 130.107 71.1448 130.552 70.2833C130.956 69.501 132.081 65.7157 132.081 65.7157L132.076 65.7206C133.109 62.6147 132.892 61.2072 132.417 60.5441Z" fill="#263238"/>
<path d="M129.419 66.0489C129.548 65.6344 129.676 65.4009 130.057 64.9941C130.437 64.5896 131.946 64.1468 132.635 65.4292C133.336 66.7363 132.163 68.4032 131.27 68.9212C130.125 69.5852 129.454 68.6805 129.454 68.6805L129.481 74.7709C128.948 75.996 126.541 77.1016 125.111 76.9198C123.969 76.7746 122.918 75.8765 123.938 74.57L123.856 72.8344C123.856 72.8344 122.331 73.1437 121.577 73.0651C120.32 72.9342 119.487 71.9895 119.042 70.6587C118.327 68.5212 118.009 66.7825 118.313 62.494C118.646 57.7936 124.079 57.4753 127.105 59.1771C130.132 60.8785 129.419 66.0489 129.419 66.0489Z" fill="#F1C1B9"/>
<path d="M116.583 57.621C116.446 56.5949 116.801 55.4946 117.874 55.1313C118.684 54.8562 119.515 54.8725 120.26 55.5282C120.526 54.8054 121.225 54.2612 121.992 54.1808C122.758 54.1001 123.555 54.4871 123.965 55.1391C124.29 54.6824 124.672 54.4073 125.204 54.2778C125.825 54.1269 126.593 54.2849 127.034 54.6103C127.474 54.9351 127.987 55.5489 127.857 56.3145C128.724 55.9679 129.626 56.2551 130.269 57.0217C130.655 57.4814 130.866 58.0767 130.883 58.6742C130.892 58.965 130.873 59.32 130.753 59.5902C130.627 59.8718 130.374 60.0558 130.302 60.3735C130.234 60.6717 130.096 60.9478 130.137 61.2482C130.208 61.7668 130.322 62.282 130.39 62.8024C130.455 63.3043 130.514 63.8118 130.517 64.3187C130.519 64.5615 130.345 64.7328 130.143 64.9121C129.814 65.2039 129.74 65.3561 129.495 65.8522C129.386 66.0734 129.282 66.621 129.068 66.771C128.412 67.2292 128.339 65.7422 128.308 65.4578C128.276 65.1731 128.267 64.4281 128.322 63.483C128.111 63.4692 127.245 63.4556 126.574 62.6795C126.355 62.4262 126.185 62.0401 126.14 61.7135C126.112 61.5033 126.08 61.32 126.089 61.1093C125.663 61.817 124.665 62.1073 123.958 62.0435C122.767 61.9363 122.359 61.4282 122.167 61.0532C122.08 61.3856 121.935 61.8109 121.695 62.0577C121.39 62.3689 120.985 62.5571 120.628 62.6788C119.964 62.905 119.171 62.62 118.682 62.1177C118.198 62.8116 116.973 62.5023 116.701 62.3069C116.078 61.8598 115.885 61.3293 115.818 60.5657C115.75 59.8022 116.057 58.9382 116.9 58.6384C116.74 58.3318 116.631 57.9809 116.583 57.621Z" fill="#263238"/>
<path d="M123.856 72.8345C123.856 72.8345 126.612 72.1357 127.559 71.5703C128.193 71.1919 128.7 70.5655 128.838 70.173C128.838 70.173 128.697 71.0077 128.152 71.7804C127.485 72.7255 123.893 73.575 123.893 73.575L123.856 72.8345Z" fill="#F28F8F"/>
<path d="M124.01 65.8463C124.027 66.189 124.308 66.4527 124.637 66.4355C124.967 66.4182 125.22 66.1264 125.203 65.7838C125.186 65.4415 124.905 65.1777 124.576 65.195C124.246 65.2122 123.992 65.504 124.01 65.8463Z" fill="#263238"/>
<path d="M123.087 70.3033C123.109 70.7445 123.471 71.0841 123.895 71.0616C124.32 71.0397 124.646 70.6638 124.624 70.2229C124.602 69.7819 124.24 69.4424 123.816 69.4646C123.391 69.4867 123.065 69.8623 123.087 70.3033Z" fill="#F28F8F"/>
<path d="M124.507 63.7944L125.776 64.4149C125.941 64.051 125.79 63.6169 125.439 63.4459C125.089 63.2742 124.671 63.4305 124.507 63.7944Z" fill="#263238"/>
<path d="M118.985 64.3257L120.068 63.4022C119.822 63.091 119.38 63.0457 119.081 63.3006C118.782 63.5557 118.739 64.0145 118.985 64.3257Z" fill="#263238"/>
<path d="M119.307 65.7259C119.324 66.0571 119.596 66.3123 119.915 66.2956C120.234 66.2787 120.479 65.9967 120.462 65.6652C120.446 65.334 120.174 65.0788 119.855 65.0955C119.536 65.1121 119.291 65.3944 119.307 65.7259Z" fill="#263238"/>
<path d="M122.168 65.0399L122.149 68.6863L120.219 68.1332L122.168 65.0399Z" fill="#F28F8F"/>
<path d="M117.326 70.1402C117.361 70.1325 117.393 70.1116 117.414 70.0798C117.458 70.0142 117.44 69.9251 117.374 69.8814L115.7 68.7657C115.634 68.7216 115.545 68.7398 115.501 68.8054C115.458 68.871 115.475 68.9601 115.541 69.0038L117.216 70.1196C117.25 70.1421 117.289 70.1482 117.326 70.1402Z" fill="#E0E0E0"/>
<path d="M117.147 70.8608C117.199 70.8491 117.243 70.8091 117.256 70.7533C117.273 70.6763 117.226 70.5995 117.149 70.5817L115.188 70.1272C115.112 70.109 115.035 70.1571 115.016 70.2341C114.999 70.3111 115.047 70.3879 115.124 70.406L117.084 70.8605C117.105 70.8654 117.127 70.8651 117.147 70.8608Z" fill="#E0E0E0"/>
<path d="M115.328 72.165C115.334 72.1638 115.34 72.162 115.346 72.1598L117.235 71.4684C117.31 71.4413 117.348 71.359 117.321 71.2847C117.293 71.2105 117.206 71.1735 117.137 71.1997L115.247 71.8908C115.173 71.9179 115.135 72.0002 115.162 72.0745C115.187 72.1426 115.258 72.1805 115.328 72.165Z" fill="#E0E0E0"/>
<path d="M99.3462 86.9452C99.3958 87.045 99.4821 87.1257 99.5946 87.1661C99.8263 87.2496 100.082 87.1294 100.166 86.8983L101.573 83.4319C101.656 83.1999 101.536 82.9448 101.304 82.8613C101.073 82.7778 100.817 82.898 100.733 83.1291L99.3262 86.5954C99.2837 86.7147 99.2941 86.8398 99.3462 86.9452Z" fill="#E0E0E0"/>
<path d="M97.0339 86.9398C97.1076 87.0887 97.2619 87.19 97.4394 87.1876C97.6859 87.1839 97.8825 86.9814 97.8791 86.7349L97.8347 82.4107C97.8323 82.1661 97.6286 81.9677 97.3821 81.9714C97.1359 81.975 96.9393 82.1775 96.9424 82.4237L96.9874 86.7479C96.9883 86.8166 97.005 86.8822 97.0339 86.9398Z" fill="#E0E0E0"/>
<path d="M93.1106 84.5284C93.1192 84.5463 93.1297 84.5638 93.1405 84.5799L95.2629 87.6617C95.4009 87.8666 95.6779 87.9205 95.8822 87.7831C96.0868 87.6448 96.133 87.3518 96.003 87.1644L93.8803 84.0822C93.7426 83.8773 93.4653 83.8234 93.261 83.9608C93.0736 84.0878 93.0129 84.3318 93.1106 84.5284Z" fill="#E0E0E0"/>
<defs>
<linearGradient id="paint0_linear_109_56387" x1="3.96028" y1="160.133" x2="12.1816" y2="123.691" gradientUnits="userSpaceOnUse">
<stop stop-color="#452BFF"/>
<stop offset="0.486792" stop-color="#DA61B1"/>
<stop offset="1" stop-color="#FF7F2C"/>
</linearGradient>
<linearGradient id="paint1_linear_109_56387" x1="3.96028" y1="160.133" x2="12.1816" y2="123.691" gradientUnits="userSpaceOnUse">
<stop stop-color="#452BFF"/>
<stop offset="0.486792" stop-color="#DA61B1"/>
<stop offset="1" stop-color="#FF7F2C"/>
</linearGradient>
</defs>
</svg>
