<svg width="200" height="194" viewBox="0 0 200 194" fill="none" xmlns="http://www.w3.org/2000/svg">
<path d="M175.787 165.793C175.787 165.919 175.733 166.086 175.544 166.302C175.351 166.52 175.042 166.759 174.594 167.011C173.698 167.516 172.345 168.018 170.556 168.505C166.987 169.477 161.799 170.358 155.361 171.099C142.491 172.582 124.699 173.5 105.037 173.5C85.3747 173.5 67.5823 172.582 54.7129 171.099C48.2749 170.358 43.0869 169.477 39.5176 168.505C37.7291 168.018 36.3757 167.516 35.4799 167.011C35.0318 166.759 34.7223 166.52 34.53 166.302C34.3404 166.086 34.2871 165.919 34.2871 165.793C34.2871 165.667 34.3404 165.5 34.53 165.285C34.7223 165.067 35.0318 164.827 35.4799 164.575C36.3757 164.071 37.7291 163.568 39.5176 163.081C43.0869 162.109 48.2749 161.228 54.7129 160.487C67.5823 159.004 85.3747 158.086 105.037 158.086C124.699 158.086 142.491 159.004 155.361 160.487C161.799 161.228 166.987 162.109 170.556 163.081C172.345 163.568 173.698 164.071 174.594 164.575C175.042 164.827 175.351 165.067 175.544 165.285C175.733 165.5 175.787 165.667 175.787 165.793Z" fill="url(#paint0_linear_109_55924)" stroke="url(#paint1_linear_109_55924)"/>
<path d="M80.0165 118.933L46.7567 141.179L14 92.2056L47.2601 69.9593L80.0165 118.933Z" fill="#F5F5F5"/>
<path d="M62.8342 116.612L62.4569 118.948L45.9229 116.566L46.3005 114.23L62.8342 116.612Z" fill="#E1E1E1"/>
<path d="M54.5077 108.278L56.8802 108.62L54.2498 124.898L51.877 124.557L54.5077 108.278Z" fill="#E1E1E1"/>
<path d="M39.2778 87.5874C39.3015 87.623 35.9682 89.8939 31.8341 92.6592C27.6984 95.4253 24.3276 97.6384 24.3038 97.6028C24.2801 97.5676 27.6125 95.297 31.7484 92.5308C35.8826 89.7655 39.2541 87.5521 39.2778 87.5874Z" fill="#E1E1E1"/>
<path d="M51.5096 84.5179C51.5333 84.5535 45.9906 88.3023 39.1314 92.89C32.2696 97.4798 26.6898 101.17 26.6661 101.135C26.6424 101.099 32.1839 97.3511 39.0455 92.762C45.9049 88.1737 51.4859 84.4824 51.5096 84.5179Z" fill="#E1E1E1"/>
<path d="M53.9618 88.1828C53.9855 88.2184 48.4427 91.9672 41.5836 96.5549C34.7218 101.145 29.142 104.835 29.1182 104.8C29.0945 104.764 34.6361 101.016 41.4976 96.4268C48.3571 91.8388 53.9381 88.1472 53.9618 88.1828Z" fill="#E1E1E1"/>
<path d="M56.4132 91.8486C56.437 91.8841 50.8942 95.633 44.035 100.221C37.1732 104.81 31.5934 108.501 31.5694 108.466C31.546 108.43 37.0873 104.682 43.9491 100.093C50.8082 95.5046 56.3895 91.8133 56.4132 91.8486Z" fill="#E1E1E1"/>
<path d="M58.8651 95.5144C58.8888 95.55 53.346 99.2988 46.4869 103.886C39.6251 108.476 34.0453 112.167 34.0216 112.131C33.9978 112.096 39.5394 108.348 46.4009 103.758C53.2604 99.1701 58.8414 95.4788 58.8651 95.5144Z" fill="#E1E1E1"/>
<path d="M185.985 143.912L158.053 162.595L130.543 121.465L158.475 102.782L185.985 143.912Z" fill="#F5F5F5"/>
<path d="M171.554 141.961L171.237 143.923L157.352 141.923L157.668 139.961L171.554 141.961Z" fill="#E1E1E1"/>
<path d="M164.562 134.963L166.554 135.25L164.345 148.922L162.353 148.635L164.562 134.963Z" fill="#E1E1E1"/>
<path d="M151.772 117.587C151.796 117.622 149 119.534 145.528 121.857C142.054 124.18 139.22 126.034 139.196 125.998C139.173 125.963 141.969 124.052 145.442 121.728C148.914 119.406 151.748 117.552 151.772 117.587Z" fill="#E1E1E1"/>
<path d="M162.043 115.008C162.067 115.043 157.415 118.196 151.655 122.049C145.892 125.903 141.203 128.998 141.179 128.963C141.155 128.928 145.806 125.775 151.569 121.921C157.33 118.068 162.019 114.972 162.043 115.008Z" fill="#E1E1E1"/>
<path d="M164.103 118.087C164.127 118.122 159.475 121.275 153.714 125.128C147.952 128.982 143.262 132.077 143.238 132.042C143.215 132.006 147.866 128.854 153.628 125C159.389 121.146 164.079 118.051 164.103 118.087Z" fill="#E1E1E1"/>
<path d="M166.162 121.165C166.186 121.2 161.534 124.353 155.773 128.207C150.011 132.061 145.322 135.156 145.298 135.12C145.274 135.085 149.925 131.933 155.688 128.078C161.448 124.225 166.139 121.13 166.162 121.165Z" fill="#E1E1E1"/>
<path d="M168.221 124.243C168.245 124.279 163.593 127.432 157.832 131.285C152.07 135.139 147.38 138.234 147.357 138.198C147.333 138.163 151.984 135.011 157.746 131.156C163.507 127.303 168.197 124.208 168.221 124.243Z" fill="#E1E1E1"/>
<path d="M85.0663 102.594L83.1327 103.256L78.2246 89.6874L80.1582 89.0252L85.0663 102.594Z" fill="#E1E1E1"/>
<path d="M88.0306 92.8591L88.7349 94.8059L75.26 99.4209L74.5557 97.4737L88.0306 92.8591Z" fill="#E1E1E1"/>
<path d="M97.6052 72.8404C97.5815 72.8849 94.4901 71.2783 90.7016 69.2522C86.9119 67.2253 83.8602 65.5467 83.8839 65.5019C83.9079 65.4575 86.9984 67.0638 90.7881 69.0907C94.5764 71.1167 97.6292 72.7959 97.6052 72.8404Z" fill="#E1E1E1"/>
<path d="M104.918 80.9133C104.895 80.958 99.7785 78.2683 93.4932 74.9069C87.2056 71.544 82.1294 68.7829 82.1534 68.7381C82.1771 68.6934 87.2918 71.3825 93.5798 74.7451C99.8651 78.1068 104.942 80.8688 104.918 80.9133Z" fill="#E1E1E1"/>
<path d="M103.123 84.2723C103.099 84.317 97.9829 81.6273 91.6973 78.2656C85.4097 74.903 80.3335 72.1419 80.3575 72.0971C80.3812 72.0524 85.4962 74.7415 91.7839 78.1041C98.0692 81.4658 103.147 84.2278 103.123 84.2723Z" fill="#E1E1E1"/>
<path d="M101.326 87.631C101.302 87.6755 96.186 84.9861 89.9005 81.6244C83.6128 78.2618 78.5366 75.5004 78.5606 75.4559C78.5843 75.4111 83.6994 78.1003 89.987 81.4629C96.2723 84.8245 101.35 87.5866 101.326 87.631Z" fill="#E1E1E1"/>
<path d="M99.5298 90.9898C99.5061 91.0346 94.3901 88.3449 88.1046 84.9835C81.8169 81.6206 76.7407 78.8594 76.7647 78.8147C76.7884 78.7699 81.9035 81.459 88.1911 84.8216C94.4764 88.1833 99.5538 90.9453 99.5298 90.9898Z" fill="#E1E1E1"/>
<g opacity="0.199997">
<path opacity="0.199997" d="M99.6905 33.715H98.9248V46.7524H99.6905V33.715Z" fill="black"/>
</g>
<path d="M26.7485 82.4371C24.2215 102.328 34.4222 122.718 50.5421 134.642C66.662 146.566 87.8729 150.49 107.721 147.646C121.89 145.617 135.944 140.061 145.931 129.808C155.917 119.554 161.182 104.15 157.158 90.4138C155.638 85.2255 152.653 80.1994 147.915 77.5948C140.351 73.436 131.014 76.4859 122.964 79.6036C114.914 82.7217 105.591 85.7932 98.0089 81.6676C92.1828 78.4974 89.1913 71.9753 84.9211 66.8997C77.6606 58.2694 65.867 53.6888 54.6848 55.1561C53.2869 55.3396 51.9044 55.6168 50.5456 55.9814C38.6494 59.1732 29.6557 68.9465 27.0609 80.9867L26.7485 82.4371Z" fill="#ECECEC"/>
<path d="M89.6611 55.8091H125.368C125.368 55.8091 122.071 40.0295 107.244 40.0295C94.0559 40.0295 89.6611 55.8091 89.6611 55.8091Z" fill="url(#paint2_linear_109_55924)"/>
<path d="M107.897 27.0003H107.132V40.0377H107.897V27.0003Z" fill="url(#paint3_linear_109_55924)"/>
<path d="M17.1456 145.524C18.1478 145.559 19.0887 146.104 19.7497 146.858C20.4107 147.612 20.8159 148.56 21.0753 149.529C21.5768 151.403 21.2685 153.616 20.7338 155.481C18.7048 154.756 17.4533 152.591 16.8874 151.454C15.9931 149.656 15.4688 145.863 17.1456 145.524Z" fill="#FF7F2C"/>
<path d="M23.6542 157.752C23.0139 156.833 22.9988 155.555 23.5051 154.555C24.0111 153.556 24.9833 152.835 26.0543 152.506C26.5496 152.354 27.1241 152.29 27.5548 152.578C27.9576 152.847 28.1313 153.374 28.0794 153.856C28.0276 154.337 27.7836 154.778 27.4958 155.167C26.5093 156.503 25.3091 157.615 23.6542 157.752Z" fill="#FF7F2C"/>
<path d="M23.8775 164.016C23.8677 164.017 23.8369 163.878 23.7868 163.627C23.7326 163.349 23.6623 162.989 23.5781 162.558C23.4181 161.66 23.1637 160.383 23.3561 158.971C23.5408 157.565 24.1004 156.363 24.687 155.645C24.976 155.282 25.2523 155.025 25.4568 154.867C25.5558 154.784 25.643 154.733 25.6984 154.694C25.755 154.657 25.7862 154.639 25.7888 154.643C25.8111 154.668 25.3146 154.974 24.7659 155.706C24.2101 156.426 23.6774 157.607 23.4954 158.989C23.3063 160.373 23.5405 161.638 23.6759 162.541C23.7486 162.995 23.8073 163.362 23.8408 163.618C23.8745 163.873 23.8867 164.014 23.8775 164.016Z" fill="#1A2E35"/>
<path d="M17.8004 148.377C17.8049 148.375 17.8327 148.428 17.8822 148.531C17.9362 148.648 18.0056 148.797 18.0912 148.983C18.2706 149.376 18.5228 149.949 18.8281 150.658C19.4396 152.078 20.2569 154.051 21.11 156.25C21.9625 158.45 22.6893 160.458 23.195 161.919C23.4478 162.649 23.6476 163.242 23.7804 163.653C23.8418 163.847 23.8916 164.005 23.9304 164.128C23.9633 164.236 23.9784 164.294 23.9737 164.296C23.9692 164.298 23.9452 164.243 23.9037 164.137C23.8584 164.016 23.8006 163.862 23.7288 163.671C23.5744 163.248 23.3616 162.665 23.1013 161.952C22.5719 160.5 21.8309 158.499 20.9786 156.301C20.1261 154.103 19.3243 152.126 18.7365 150.697C18.4478 149.994 18.2119 149.42 18.0411 149.004C17.9652 148.815 17.9039 148.662 17.8562 148.542C17.8153 148.436 17.796 148.379 17.8004 148.377Z" fill="#1A2E35"/>
<path d="M21.4683 159.872C20.2714 157.836 18.0373 156.447 15.6816 156.276C15.0817 156.233 14.3602 156.334 14.0928 156.873C13.8246 157.412 14.1829 158.051 14.5917 158.493C16.2923 160.335 19.1684 160.977 21.4906 160.033" fill="#FF7F2C"/>
<path d="M16.5957 157.882C16.5963 157.872 16.7297 157.878 16.9713 157.896C17.0922 157.904 17.2401 157.915 17.4097 157.947C17.5783 157.978 17.7752 157.997 17.9844 158.055C18.1952 158.107 18.4276 158.158 18.6683 158.245C18.9134 158.317 19.1654 158.422 19.4304 158.534C19.9533 158.772 20.5079 159.083 21.0361 159.486C21.5605 159.895 22.0033 160.352 22.3635 160.8C22.5366 161.03 22.702 161.247 22.8309 161.468C22.9735 161.681 23.0793 161.894 23.1786 162.088C23.2853 162.277 23.3482 162.464 23.4175 162.621C23.4878 162.779 23.5316 162.921 23.5666 163.037C23.6387 163.268 23.6736 163.397 23.6644 163.4C23.6345 163.41 23.4901 162.892 23.0906 162.133C22.9865 161.946 22.8774 161.738 22.7328 161.531C22.6018 161.316 22.4352 161.105 22.2624 160.881C21.9025 160.445 21.4653 160 20.9501 159.598C20.4314 159.201 19.8886 158.893 19.377 158.653C19.118 158.539 18.8713 158.432 18.6309 158.355C18.3956 158.265 18.1673 158.209 17.9607 158.151C17.129 157.941 16.5925 157.913 16.5957 157.882Z" fill="#1A2E35"/>
<path d="M151.149 64.9796C150.278 65.1803 149.853 66.1831 149.771 67.0735C149.688 67.9643 149.802 68.9048 149.428 69.7173C149.007 70.6318 148.001 71.3058 147.968 72.3119C147.947 72.9254 148.312 73.5023 148.294 74.1156C148.265 75.1234 147.238 75.8849 147.184 76.8913C147.145 77.616 147.628 78.3117 147.512 79.0281C147.422 79.5857 146.988 80.025 146.804 80.5591C146.438 81.6242 147.17 82.7965 148.123 83.3962C149.185 84.064 150.545 84.2365 151.74 83.8547C152.935 83.473 153.943 82.5437 154.421 81.3838C154.948 80.1036 154.833 78.6621 154.719 77.2822C154.361 72.9827 154.096 68.6754 153.922 64.3643" fill="#1A2E35"/>
<path d="M148.619 80.1528C148.6 80.1356 148.857 80.0595 149.017 79.6792C149.095 79.493 149.134 79.2431 149.119 78.9556C149.109 78.666 149.01 78.3509 148.903 77.9958C148.803 77.6433 148.674 77.2349 148.748 76.7805C148.823 76.3186 149.153 75.9398 149.454 75.5672C149.606 75.3787 149.759 75.1825 149.855 74.959C149.956 74.7381 149.977 74.4853 149.901 74.2484C149.748 73.7638 149.273 73.4078 149.055 72.8485C148.947 72.5686 148.946 72.2607 149.008 71.9835C149.066 71.704 149.18 71.4499 149.294 71.2078C149.526 70.7252 149.782 70.2826 149.883 69.8131C150.091 68.8729 149.994 67.9753 150.135 67.2381C150.264 66.4994 150.576 65.944 150.885 65.6588C151.035 65.5109 151.181 65.4323 151.277 65.3796C151.378 65.336 151.431 65.3158 151.433 65.3206C151.443 65.3375 151.214 65.4077 150.927 65.7012C150.641 65.9899 150.355 66.5332 150.243 67.2562C150.184 67.6158 150.175 68.0201 150.161 68.454C150.145 68.8877 150.132 69.3587 150.021 69.8454C149.918 70.339 149.656 70.7987 149.43 71.2727C149.208 71.7384 149.003 72.2847 149.2 72.7948C149.388 73.2993 149.866 73.6577 150.045 74.2028C150.133 74.474 150.104 74.7746 149.99 75.0177C149.881 75.2649 149.719 75.467 149.565 75.657C149.255 76.0314 148.945 76.388 148.874 76.8027C148.8 77.2153 148.914 77.6134 149.008 77.9658C149.107 78.3183 149.203 78.6503 149.205 78.9517C149.213 79.2508 149.163 79.5108 149.072 79.7032C148.983 79.8967 148.86 80.0165 148.769 80.0772C148.677 80.1398 148.619 80.1528 148.619 80.1528Z" fill="#375A64"/>
<path d="M146.285 87.1787L143.61 94.8921L132.451 95.4903L130.591 99.6307L142.24 100.809C144.563 101.77 147.217 100.593 148.065 98.2262L151.174 89.5486L146.285 87.1787Z" fill="#FFC19E"/>
<path d="M169.366 159.9C169.366 159.9 161.188 133.928 161.015 133.085C160.858 132.323 163.983 113.633 164.376 108.796L153.327 109.208C153.327 109.208 153.327 109.237 153.326 109.288L148.63 109.549L152.836 162.665H157.921L157.416 145.043C160.552 153.46 165.045 162.038 165.045 162.038L169.366 159.9Z" fill="#FFC19E"/>
<path d="M157.624 151.359C157.629 151.198 157.563 145.454 157.563 145.454C157.499 145.798 155.613 140.468 155.659 140.144C155.682 139.976 157.624 151.359 157.624 151.359Z" fill="#B66955"/>
<path d="M155.443 137.62C155.431 137.62 155.42 137.735 155.411 137.942C155.4 138.15 155.397 138.451 155.417 138.823C155.425 139.009 155.444 139.212 155.468 139.43C155.496 139.648 155.525 139.881 155.576 140.122C155.668 140.607 155.81 141.131 155.992 141.669C156.361 142.744 156.768 143.684 157.057 144.366C157.194 144.677 157.312 144.944 157.411 145.169C157.498 145.357 157.551 145.459 157.562 145.455C157.573 145.45 157.54 145.34 157.472 145.144C157.404 144.948 157.3 144.667 157.168 144.321C156.907 143.628 156.517 142.68 156.152 141.616C155.972 141.083 155.827 140.567 155.728 140.091C155.675 139.854 155.64 139.626 155.607 139.412C155.577 139.198 155.551 138.998 155.536 138.814C155.501 138.447 155.486 138.149 155.476 137.942C155.466 137.735 155.455 137.621 155.443 137.62Z" fill="#B66955"/>
<path d="M152.74 162.928L152.738 162.45L157.946 162.223L157.961 164.193L157.639 164.214C156.21 164.298 150.365 164.539 149.408 164.253C148.341 163.932 152.74 162.928 152.74 162.928Z" fill="#5136F5"/>
<path d="M158.034 164.073C158.034 164.075 158.003 164.079 157.945 164.083C157.868 164.088 157.784 164.093 157.689 164.1C157.433 164.112 157.119 164.126 156.747 164.144C155.952 164.175 154.853 164.204 153.638 164.209C152.423 164.215 151.324 164.195 150.528 164.171C150.157 164.157 149.842 164.145 149.586 164.135C149.491 164.13 149.407 164.125 149.33 164.121C149.272 164.117 149.241 164.114 149.241 164.112C149.241 164.109 149.272 164.108 149.331 164.108C149.408 164.109 149.492 164.11 149.587 164.111C149.843 164.115 150.158 164.12 150.529 164.126C151.324 164.14 152.424 164.152 153.638 164.146C154.852 164.141 155.951 164.119 156.746 164.099C157.117 164.09 157.432 164.082 157.688 164.075C157.783 164.073 157.867 164.072 157.944 164.07C158.003 164.07 158.034 164.071 158.034 164.073Z" fill="#1A2E35"/>
<path d="M151.053 164.241C151.034 164.244 151.019 164.019 150.875 163.793C150.737 163.563 150.542 163.449 150.553 163.433C150.557 163.418 150.779 163.514 150.929 163.76C151.081 164.003 151.069 164.245 151.053 164.241Z" fill="#1A2E35"/>
<path d="M152.579 163.46C152.565 163.469 152.491 163.38 152.416 163.261C152.339 163.143 152.29 163.039 152.304 163.029C152.319 163.02 152.392 163.109 152.468 163.228C152.544 163.346 152.594 163.45 152.579 163.46Z" fill="#1A2E35"/>
<path d="M152.998 163.236C152.987 163.249 152.905 163.195 152.816 163.115C152.726 163.035 152.663 162.96 152.674 162.947C152.685 162.934 152.768 162.988 152.857 163.068C152.947 163.148 153.01 163.223 152.998 163.236Z" fill="#1A2E35"/>
<path d="M153.262 162.746C153.262 162.764 153.141 162.78 152.992 162.782C152.842 162.784 152.721 162.772 152.721 162.754C152.72 162.737 152.841 162.722 152.991 162.719C153.14 162.717 153.262 162.729 153.262 162.746Z" fill="#1A2E35"/>
<path d="M153.351 162.401C153.357 162.417 153.225 162.477 153.05 162.49C152.874 162.505 152.735 162.466 152.738 162.45C152.741 162.432 152.878 162.441 153.045 162.427C153.211 162.415 153.345 162.384 153.351 162.401Z" fill="#1A2E35"/>
<path d="M152.402 163.008C152.403 163.015 152.275 163.031 152.069 163.007C151.967 162.995 151.845 162.972 151.715 162.931C151.649 162.908 151.582 162.891 151.511 162.848C151.478 162.826 151.442 162.795 151.429 162.744C151.415 162.695 151.441 162.639 151.478 162.611C151.796 162.445 152.115 162.623 152.234 162.787C152.299 162.871 152.33 162.953 152.344 163.009C152.357 163.066 152.356 163.098 152.353 163.099C152.341 163.103 152.33 162.968 152.2 162.816C152.136 162.741 152.039 162.668 151.915 162.632C151.797 162.597 151.63 162.588 151.518 162.66C151.465 162.699 151.486 162.762 151.545 162.796C151.6 162.832 151.671 162.853 151.732 162.876C151.859 162.918 151.976 162.946 152.076 162.964C152.275 162.998 152.402 162.998 152.402 163.008Z" fill="#1A2E35"/>
<path d="M152.316 163.025C152.311 163.029 152.261 162.944 152.276 162.794C152.284 162.72 152.311 162.633 152.366 162.55C152.425 162.476 152.5 162.374 152.643 162.379C152.72 162.389 152.758 162.477 152.746 162.533C152.74 162.591 152.714 162.642 152.69 162.682C152.641 162.765 152.585 162.833 152.533 162.884C152.429 162.986 152.347 163.026 152.343 163.019C152.338 163.011 152.41 162.959 152.501 162.854C152.547 162.801 152.596 162.734 152.64 162.653C152.685 162.583 152.716 162.456 152.632 162.441C152.549 162.434 152.464 162.517 152.414 162.584C152.362 162.656 152.333 162.734 152.32 162.8C152.295 162.936 152.327 163.022 152.316 163.025Z" fill="#1A2E35"/>
<path d="M157.922 162.656C157.922 162.668 157.774 162.643 157.54 162.671C157.308 162.698 156.986 162.794 156.706 163.018C156.426 163.243 156.263 163.537 156.187 163.758C156.109 163.98 156.101 164.13 156.09 164.128C156.086 164.128 156.084 164.091 156.089 164.024C156.094 163.957 156.11 163.86 156.144 163.744C156.212 163.514 156.375 163.204 156.667 162.969C156.958 162.736 157.296 162.643 157.536 162.627C157.656 162.618 157.754 162.624 157.82 162.633C157.887 162.643 157.923 162.652 157.922 162.656Z" fill="#1A2E35"/>
<path d="M155.428 163.66C155.431 163.677 155.092 163.731 154.671 163.732C154.25 163.735 153.912 163.685 153.914 163.668C153.916 163.65 154.254 163.672 154.671 163.67C155.088 163.668 155.426 163.642 155.428 163.66Z" fill="#1A2E35"/>
<path d="M156.444 163.649C156.457 163.662 156.416 163.721 156.382 163.799C156.347 163.876 156.329 163.946 156.312 163.944C156.295 163.944 156.285 163.863 156.325 163.773C156.365 163.683 156.433 163.637 156.444 163.649Z" fill="#1A2E35"/>
<path d="M156.825 163.171C156.837 163.184 156.804 163.238 156.751 163.292C156.697 163.347 156.644 163.381 156.631 163.369C156.619 163.357 156.652 163.303 156.706 163.248C156.759 163.194 156.813 163.159 156.825 163.171Z" fill="#1A2E35"/>
<path d="M157.371 162.952C157.368 162.97 157.299 162.969 157.223 162.996C157.146 163.021 157.092 163.064 157.079 163.053C157.065 163.043 157.108 162.969 157.203 162.937C157.297 162.904 157.377 162.936 157.371 162.952Z" fill="#1A2E35"/>
<path d="M157.762 162.848C157.768 162.864 157.738 162.891 157.695 162.907C157.653 162.925 157.613 162.925 157.606 162.909C157.6 162.893 157.63 162.866 157.672 162.849C157.715 162.832 157.755 162.832 157.762 162.848Z" fill="#1A2E35"/>
<path d="M164.942 162.468L164.745 162.033L169.403 159.693L170.223 161.484L169.938 161.635C168.669 162.297 163.435 164.911 162.445 165.041C161.341 165.186 164.942 162.468 164.942 162.468Z" fill="#5136F5"/>
<path d="M170.24 161.345C170.241 161.347 170.214 161.363 170.163 161.391C170.095 161.427 170.02 161.466 169.936 161.51C169.708 161.626 169.427 161.768 169.095 161.936C168.382 162.291 167.391 162.768 166.286 163.27C165.18 163.772 164.169 164.205 163.433 164.509C163.088 164.648 162.796 164.766 162.559 164.862C162.47 164.896 162.391 164.926 162.319 164.954C162.265 164.974 162.235 164.984 162.234 164.982C162.234 164.98 162.261 164.966 162.315 164.942C162.385 164.911 162.462 164.877 162.549 164.839C162.785 164.738 163.074 164.614 163.416 164.468C164.147 164.154 165.154 163.715 166.26 163.213C167.365 162.71 168.358 162.241 169.076 161.896C169.41 161.735 169.694 161.599 169.925 161.488C170.011 161.448 170.087 161.412 170.157 161.379C170.21 161.355 170.239 161.343 170.24 161.345Z" fill="#1A2E35"/>
<path d="M163.942 164.357C163.925 164.367 163.819 164.169 163.596 164.021C163.375 163.869 163.151 163.844 163.154 163.825C163.151 163.809 163.394 163.806 163.631 163.968C163.87 164.128 163.957 164.354 163.942 164.357Z" fill="#1A2E35"/>
<path d="M165.014 163.02C165.005 163.034 164.901 162.983 164.783 162.906C164.665 162.829 164.577 162.754 164.587 162.74C164.596 162.725 164.699 162.776 164.818 162.853C164.935 162.931 165.023 163.005 165.014 163.02Z" fill="#1A2E35"/>
<path d="M165.304 162.644C165.299 162.661 165.202 162.645 165.088 162.609C164.973 162.573 164.884 162.53 164.89 162.513C164.895 162.497 164.992 162.513 165.106 162.549C165.221 162.585 165.309 162.627 165.304 162.644Z" fill="#1A2E35"/>
<path d="M165.343 162.089C165.351 162.105 165.247 162.169 165.112 162.232C164.976 162.295 164.86 162.334 164.853 162.318C164.846 162.303 164.95 162.239 165.085 162.175C165.22 162.112 165.336 162.073 165.343 162.089Z" fill="#1A2E35"/>
<path d="M165.283 161.738C165.295 161.749 165.2 161.858 165.045 161.942C164.891 162.027 164.748 162.049 164.744 162.033C164.74 162.015 164.868 161.968 165.015 161.887C165.162 161.807 165.271 161.724 165.283 161.738Z" fill="#1A2E35"/>
<path d="M164.668 162.681C164.671 162.687 164.561 162.754 164.364 162.816C164.265 162.847 164.144 162.875 164.008 162.891C163.94 162.897 163.871 162.909 163.789 162.899C163.75 162.893 163.704 162.88 163.671 162.839C163.638 162.799 163.639 162.737 163.662 162.697C163.884 162.415 164.248 162.446 164.424 162.548C164.518 162.597 164.578 162.66 164.614 162.705C164.65 162.751 164.662 162.781 164.659 162.783C164.65 162.792 164.585 162.673 164.404 162.588C164.315 162.545 164.197 162.519 164.069 162.537C163.947 162.553 163.791 162.614 163.718 162.725C163.686 162.783 163.731 162.831 163.799 162.838C163.863 162.847 163.937 162.838 164.002 162.834C164.135 162.821 164.254 162.798 164.351 162.773C164.548 162.723 164.663 162.671 164.668 162.681Z" fill="#1A2E35"/>
<path d="M164.596 162.732C164.593 162.737 164.513 162.679 164.465 162.537C164.442 162.466 164.431 162.376 164.447 162.278C164.471 162.186 164.498 162.062 164.63 162.009C164.704 161.986 164.878 162.135 164.89 162.192C164.909 162.247 164.802 162.218 164.797 162.265C164.786 162.361 164.763 162.446 164.737 162.514C164.684 162.65 164.625 162.719 164.619 162.715C164.61 162.71 164.655 162.633 164.695 162.499C164.714 162.432 164.732 162.351 164.739 162.26C164.752 162.177 164.728 162.049 164.646 162.07C164.566 162.096 164.523 162.207 164.504 162.289C164.487 162.376 164.492 162.459 164.508 162.525C164.541 162.659 164.605 162.725 164.596 162.732Z" fill="#1A2E35"/>
<path d="M169.559 160.098C169.562 160.109 169.417 160.146 169.216 160.268C169.015 160.388 168.761 160.607 168.597 160.926C168.434 161.246 168.405 161.581 168.426 161.814C168.446 162.049 168.501 162.188 168.49 162.191C168.486 162.192 168.469 162.16 168.446 162.096C168.424 162.033 168.398 161.938 168.382 161.818C168.349 161.581 168.371 161.231 168.541 160.898C168.712 160.565 168.982 160.342 169.194 160.23C169.3 160.172 169.392 160.137 169.456 160.118C169.521 160.1 169.558 160.094 169.559 160.098Z" fill="#1A2E35"/>
<path d="M167.695 162.036C167.704 162.05 167.418 162.237 167.035 162.412C166.652 162.586 166.322 162.679 166.317 162.664C166.312 162.646 166.629 162.528 167.009 162.354C167.388 162.182 167.686 162.02 167.695 162.036Z" fill="#1A2E35"/>
<path d="M168.616 161.61C168.633 161.616 168.621 161.687 168.622 161.772C168.621 161.857 168.633 161.927 168.616 161.933C168.601 161.94 168.559 161.87 168.559 161.772C168.559 161.673 168.601 161.603 168.616 161.61Z" fill="#1A2E35"/>
<path d="M168.768 161.018C168.784 161.024 168.776 161.087 168.75 161.159C168.723 161.23 168.689 161.283 168.673 161.277C168.656 161.271 168.664 161.208 168.691 161.137C168.717 161.065 168.752 161.012 168.768 161.018Z" fill="#1A2E35"/>
<path d="M169.178 160.594C169.182 160.612 169.119 160.639 169.061 160.695C169.001 160.75 168.97 160.811 168.952 160.806C168.936 160.803 168.945 160.717 169.018 160.649C169.091 160.581 169.176 160.577 169.178 160.594Z" fill="#1A2E35"/>
<path d="M169.492 160.337C169.505 160.35 169.488 160.387 169.456 160.42C169.423 160.454 169.386 160.471 169.373 160.458C169.361 160.446 169.377 160.409 169.41 160.376C169.443 160.342 169.48 160.325 169.492 160.337Z" fill="#1A2E35"/>
<path d="M163.659 100.005L162.792 89.4238L167.247 89.503C167.247 89.503 167.453 87.9432 166.797 84.5207C166.394 82.4221 164.997 81.135 163.429 80.3703L163.429 80.3421L163.294 80.3065C161.3 79.3734 159.213 79.2418 159.213 79.2418L153.745 79.3052C153.745 79.3052 149.568 78.7838 147.256 81.7617C146.365 82.9088 143.609 90.7598 143.609 90.7598L150.173 93.9205L149.548 89.567C149.548 89.567 149.672 92.7236 150.075 93.7237C150.3 94.281 150.949 96.0109 150.949 96.0109L150.865 101.232L163.659 100.005Z" fill="#FF7F2C"/>
<path d="M160.642 87.8878L159.831 91.3458H167.488L166.984 85.5484L160.642 87.8878Z" fill="#FF7F2C"/>
<path d="M167.488 91.3446C167.489 91.3218 167.102 91.2815 166.474 91.2444C165.847 91.2074 164.978 91.1766 164.019 91.1807C163.059 91.1854 162.19 91.2272 161.564 91.2767C160.936 91.3262 160.551 91.3793 160.553 91.4015C160.554 91.4258 160.943 91.4149 161.57 91.3959C162.197 91.3769 163.063 91.3544 164.02 91.3497C164.976 91.3452 165.842 91.3574 166.47 91.3636C167.098 91.3701 167.487 91.3686 167.488 91.3446Z" fill="#1A2E35"/>
<path d="M160.312 85.5195C160.289 85.5204 160.281 85.8565 160.287 86.3989C160.293 86.9417 160.312 87.6907 160.344 88.5175C160.377 89.3448 160.415 90.0932 160.451 90.6345C160.488 91.176 160.522 91.5101 160.545 91.5095C160.568 91.5086 160.576 91.1725 160.571 90.63C160.565 90.0873 160.545 89.3382 160.513 88.5109C160.481 87.6842 160.443 86.9358 160.406 86.3945C160.37 85.8529 160.336 85.5186 160.312 85.5195Z" fill="#1A2E35"/>
<g opacity="0.300003">
<g opacity="0.300003">
<path opacity="0.300003" d="M153.345 88.514C153.345 88.514 155.046 101.132 159.831 100.798C159.831 100.798 161.984 100.772 162.677 99.3407V98.7772L153.345 88.514Z" fill="black"/>
</g>
</g>
<g opacity="0.300003">
<g opacity="0.300003">
<path opacity="0.300003" d="M160.313 86.2628L159.397 92.4484L159.991 93.5339L160.966 91.4116L160.554 91.4015L160.313 86.2628Z" fill="black"/>
</g>
</g>
<path d="M150.949 96.01C150.939 96.0136 150.893 95.9081 150.819 95.7145C150.745 95.5212 150.646 95.2385 150.532 94.8863C150.303 94.182 150.021 93.1964 149.8 92.0866C149.58 90.9759 149.472 89.9542 149.437 89.214C149.419 88.8438 149.413 88.5441 149.419 88.3366C149.423 88.1297 149.431 88.015 149.441 88.015C149.466 88.0147 149.483 88.4718 149.546 89.2063C149.609 89.9411 149.732 90.9528 149.951 92.0567C150.171 93.1597 150.435 94.1447 150.636 94.8546C150.731 95.1842 150.81 95.4646 150.877 95.6958C150.933 95.8947 150.959 96.0068 150.949 96.01Z" fill="#1A2E35"/>
<path d="M152.883 99.6366C152.842 99.649 152.724 99.3766 152.619 99.0286C152.514 98.6803 152.461 98.3883 152.502 98.3759C152.543 98.3634 152.661 98.6358 152.767 98.9838C152.872 99.3318 152.924 99.6241 152.883 99.6366Z" fill="#1A2E35"/>
<path d="M153.545 99.5882C153.506 99.5983 153.377 99.1898 153.371 98.666C153.362 98.142 153.478 97.7296 153.518 97.7388C153.562 97.7468 153.516 98.158 153.525 98.6637C153.531 99.1691 153.589 99.579 153.545 99.5882Z" fill="#1A2E35"/>
<path d="M150.306 94.0645C150.287 94.1027 148.759 93.378 146.894 92.4463C145.029 91.5141 143.533 90.7277 143.552 90.6897C143.571 90.6515 145.098 91.3759 146.964 92.3082C148.828 93.2398 150.325 94.0265 150.306 94.0645Z" fill="#1A2E35"/>
<path d="M152.998 80.3281C153.032 78.8285 153.041 77.2492 153.041 77.2492C153.041 77.2492 151.117 76.8787 150.782 74.3478C150.462 71.9344 151.356 66.2713 151.356 66.2713C154.166 65.2092 157.086 66.172 159.011 68.4485L158.533 80.6236C158.477 82.037 157.218 83.115 155.705 83.0442C154.177 82.9725 152.966 81.7568 152.998 80.3281Z" fill="#FFC19E"/>
<path d="M151.211 70.7968C151.2 70.9672 151.336 71.1169 151.513 71.1309C151.691 71.1451 151.844 71.0188 151.854 70.8481C151.865 70.6776 151.729 70.5279 151.551 70.5137C151.374 70.4995 151.221 70.6264 151.211 70.7968Z" fill="#1A2E35"/>
<path d="M151.09 70.3722C151.129 70.4155 151.378 70.2406 151.726 70.2503C152.073 70.2554 152.324 70.4409 152.363 70.3991C152.382 70.3808 152.343 70.3037 152.234 70.2198C152.127 70.1365 151.942 70.0532 151.726 70.0488C151.509 70.0443 151.325 70.1193 151.218 70.1982C151.109 70.2776 151.071 70.3529 151.09 70.3722Z" fill="#1A2E35"/>
<path d="M154.739 71.0164C154.728 71.1868 154.864 71.3362 155.042 71.3505C155.22 71.3647 155.373 71.2384 155.383 71.0677C155.393 70.8972 155.258 70.7476 155.08 70.7333C154.902 70.7191 154.749 70.846 154.739 71.0164Z" fill="#1A2E35"/>
<path d="M154.716 70.5925C154.755 70.6357 155.005 70.4609 155.352 70.4706C155.699 70.4754 155.95 70.6609 155.989 70.6194C156.008 70.6011 155.969 70.524 155.86 70.4401C155.753 70.3568 155.568 70.2735 155.352 70.2688C155.135 70.2646 154.951 70.3393 154.844 70.4185C154.735 70.4979 154.697 70.5732 154.716 70.5925Z" fill="#1A2E35"/>
<path d="M153.387 73.1387C153.389 73.1191 153.174 73.0762 152.825 73.0222C152.736 73.0106 152.652 72.9911 152.639 72.93C152.619 72.8654 152.659 72.7705 152.705 72.6683C152.794 72.4555 152.887 72.2325 152.985 71.9987C153.375 71.0454 153.659 70.2605 153.621 70.2451C153.582 70.2296 153.235 70.99 152.845 71.9435C152.751 72.1786 152.662 72.403 152.577 72.6173C152.54 72.7175 152.479 72.8304 152.521 72.9647C152.543 73.0317 152.607 73.0815 152.664 73.0984C152.72 73.1171 152.77 73.1194 152.814 73.1233C153.166 73.1512 153.385 73.1586 153.387 73.1387Z" fill="#1A2E35"/>
<path d="M153.04 77.2488C153.04 77.2488 154.733 77.4018 156.439 76.4354C156.439 76.4354 155.575 78.1455 153.059 77.8446L153.04 77.2488Z" fill="#B66955"/>
<path d="M155.829 69.5887C155.758 69.6975 155.493 69.6492 155.196 69.5959C154.901 69.5363 154.637 69.4838 154.611 69.3564C154.582 69.2342 154.888 69.065 155.283 69.1409C155.679 69.2159 155.901 69.4859 155.829 69.5887Z" fill="#1A2E35"/>
<path d="M152.37 69.0785C152.343 69.2053 152.06 69.2513 151.734 69.2682C151.406 69.2815 151.12 69.2614 151.082 69.1377C151.043 69.0177 151.319 68.823 151.712 68.8058C152.105 68.7871 152.398 68.9555 152.37 69.0785Z" fill="#1A2E35"/>
<path d="M153.392 73.9712C153.319 73.9507 153.237 73.9925 153.2 74.0592C153.156 74.1384 153.176 74.2474 153.245 74.3055C153.314 74.3639 153.425 74.3657 153.496 74.3091C153.567 74.2528 153.59 74.1443 153.548 74.064C153.507 73.9836 153.405 73.9398 153.318 73.9649" fill="#B66955"/>
<path d="M153.474 74.0058C153.489 73.9919 153.418 73.9065 153.266 73.9394C153.196 73.9551 153.104 74.0182 153.076 74.1258C153.048 74.2272 153.073 74.3585 153.181 74.4409C153.292 74.5192 153.426 74.5032 153.514 74.443C153.609 74.3808 153.636 74.2669 153.621 74.1958C153.591 74.0396 153.475 74.0147 153.472 74.0366C153.459 74.0559 153.512 74.1101 153.502 74.2026C153.497 74.248 153.475 74.2901 153.431 74.3114C153.388 74.3351 153.32 74.3348 153.281 74.3049C153.24 74.2761 153.219 74.2112 153.228 74.1614C153.234 74.1116 153.267 74.0746 153.307 74.0517C153.39 74.0052 153.463 74.0271 153.474 74.0058Z" fill="#1A2E35"/>
<path d="M157.845 71.4219C157.545 72.1167 156.814 72.652 156.915 73.402C156.98 73.886 157.291 74.3375 157.231 74.8224C157.155 75.4312 156.522 75.8533 156.433 76.4604C156.323 77.205 157.047 77.7836 157.336 78.4784C157.758 79.4901 157.219 80.6281 157.206 81.7239C157.186 83.4023 158.614 84.9706 160.287 85.1082C160.964 85.1642 161.726 84.96 162.077 84.3784C162.366 83.8988 162.309 83.2896 162.482 82.7567C162.741 81.9634 163.497 81.3828 163.656 80.564C163.947 79.071 162.142 77.8355 162.261 76.319C162.311 75.671 162.712 75.1061 162.882 74.4788C163.104 73.6572 162.9 72.7317 162.352 72.0802C161.907 71.5505 161.261 71.2022 160.882 70.6236C160.452 69.9673 160.437 69.1353 160.275 68.3676C159.879 66.4969 158.475 64.8719 156.681 64.2103C154.887 63.5487 152.763 63.8724 151.248 65.0382C151.248 65.0382 150.817 66.9922 152.823 67.3185C154.827 67.6452 155.757 67.2684 155.983 68.0723C155.983 68.0723 155.755 69.0111 156.584 69.9081C157.413 70.8047 158.192 70.6174 157.845 71.4219Z" fill="#1A2E35"/>
<path d="M161.045 84.9717C161.044 84.9771 160.982 84.9703 160.862 84.9525C160.743 84.9341 160.568 84.8944 160.352 84.8149C159.924 84.6584 159.317 84.3175 158.8 83.6663C158.544 83.3435 158.303 82.9522 158.141 82.4922C157.975 82.0345 157.88 81.5164 157.871 80.9704C157.858 80.4238 157.936 79.8511 158.085 79.2778C158.159 78.9906 158.256 78.7045 158.369 78.42C158.48 78.1348 158.616 77.8597 158.694 77.5687C158.778 77.2785 158.767 76.982 158.691 76.6993C158.614 76.4162 158.482 76.1506 158.354 75.8877C158.225 75.625 158.093 75.3627 158.009 75.0844C157.922 74.8081 157.89 74.5102 157.946 74.2325C158.064 73.674 158.404 73.2608 158.604 72.8369C158.816 72.4166 158.882 71.9725 158.872 71.5742C158.836 70.7667 158.492 70.1694 158.211 69.8253C157.918 69.4808 157.696 69.3495 157.707 69.3353C157.707 69.3353 157.943 69.4462 158.257 69.7865C158.558 70.1262 158.929 70.7314 158.981 71.5694C158.999 71.9823 158.936 72.4501 158.719 72.8926C158.515 73.3319 158.187 73.7484 158.086 74.2594C157.982 74.7743 158.226 75.3046 158.49 75.8207C158.619 76.0839 158.756 76.3563 158.839 76.6589C158.922 76.9595 158.935 77.2989 158.843 77.6087C158.759 77.9196 158.62 78.1983 158.511 78.4769C158.4 78.7555 158.305 79.0359 158.231 79.3163C158.083 79.8772 158.005 80.4362 158.013 80.9683C158.017 82.0366 158.384 82.9709 158.886 83.5987C159.378 84.2414 159.96 84.5882 160.374 84.7589C160.793 84.9285 161.049 84.9543 161.045 84.9717Z" fill="#375A64"/>
<path d="M160.75 70.0142C160.75 70.0239 160.594 70.0521 160.308 70.08C160.023 70.1037 159.602 70.1369 159.087 70.048C158.585 69.9561 157.949 69.7091 157.546 69.113C157.349 68.8143 157.271 68.452 157.142 68.1183C157.021 67.78 156.787 67.4878 156.467 67.2847C155.818 66.8739 155.055 66.8232 154.388 66.742C153.717 66.6664 153.087 66.5241 152.66 66.204C152.23 65.8978 152.01 65.5003 151.953 65.2142C151.921 65.0708 151.923 64.9558 151.93 64.8799C151.941 64.8037 151.949 64.7649 151.954 64.7655C151.973 64.7658 151.934 64.9285 152.011 65.1994C152.083 65.4674 152.306 65.8338 152.723 66.1145C153.134 66.4058 153.737 66.533 154.405 66.6006C155.066 66.6753 155.856 66.7165 156.551 67.1552C156.893 67.3689 157.159 67.7048 157.283 68.0634C157.415 68.4162 157.489 68.7636 157.666 69.0363C158.027 69.5879 158.625 69.8402 159.108 69.9406C159.603 70.0405 160.02 70.0254 160.304 70.0201C160.59 70.0109 160.748 70.0029 160.75 70.0142Z" fill="#375A64"/>
<path d="M160.015 67.6002C160.017 67.6076 159.896 67.6456 159.668 67.6512C159.442 67.6577 159.104 67.6177 158.732 67.4404C158.547 67.3527 158.356 67.2264 158.181 67.0575C158.004 66.89 157.858 66.673 157.722 66.4442C157.454 65.9933 157.197 65.4372 156.643 65.2072C156.1 64.9745 155.501 65.0261 154.982 65.0614C154.457 65.113 153.966 65.1284 153.564 65.0495C153.161 64.9793 152.858 64.8118 152.69 64.6571C152.605 64.5806 152.547 64.5124 152.515 64.4617C152.482 64.4116 152.467 64.3844 152.471 64.3814C152.484 64.3719 152.554 64.4765 152.728 64.6108C152.901 64.7445 153.192 64.8877 153.583 64.9419C153.973 65.0042 154.443 64.9793 154.97 64.9197C155.492 64.8785 156.108 64.813 156.705 65.0661C157 65.1918 157.242 65.4135 157.413 65.6539C157.588 65.8943 157.712 66.1454 157.844 66.3721C157.975 66.5992 158.109 66.8067 158.272 66.9668C158.432 67.1286 158.608 67.2534 158.781 67.3429C159.129 67.5234 159.45 67.5795 159.669 67.5913C159.89 67.6041 160.014 67.5869 160.015 67.6002Z" fill="#375A64"/>
<path d="M161.931 84.3317C161.915 84.3249 162.01 84.134 162.119 83.7694C162.228 83.4054 162.336 82.8588 162.317 82.1806C162.294 81.5065 162.131 80.6914 161.685 79.9171C161.468 79.5288 161.138 79.1829 160.87 78.7566C160.737 78.5438 160.622 78.3052 160.571 78.0411C160.522 77.7767 160.552 77.496 160.637 77.241C160.803 76.7294 161.101 76.2981 161.165 75.8277C161.245 75.3558 161.006 74.9254 160.78 74.5427C160.666 74.3477 160.552 74.1547 160.463 73.9535C160.374 73.7519 160.318 73.5397 160.295 73.3345C160.25 72.9225 160.298 72.544 160.329 72.2043C160.415 71.5273 160.352 70.9709 160.188 70.6291C160.03 70.2829 159.824 70.1791 159.839 70.1652C159.84 70.1628 159.852 70.1685 159.875 70.1821C159.896 70.1963 159.931 70.215 159.969 70.2497C160.048 70.314 160.154 70.4281 160.243 70.6027C160.43 70.9489 160.511 71.5305 160.438 72.2135C160.414 72.5546 160.374 72.9287 160.422 73.3188C160.462 73.7128 160.665 74.0848 160.903 74.4701C161.018 74.6655 161.14 74.8691 161.226 75.1C161.313 75.3294 161.353 75.5915 161.315 75.8485C161.243 76.3669 160.937 76.8056 160.784 77.2876C160.705 77.528 160.679 77.7752 160.723 78.0132C160.767 78.2506 160.872 78.4724 160.999 78.6769C161.253 79.0866 161.584 79.4393 161.808 79.846C162.263 80.6508 162.416 81.4893 162.426 82.1779C162.431 82.8712 162.304 83.4247 162.177 83.7875C162.11 83.9686 162.054 84.1073 162.006 84.1968C161.961 84.2878 161.936 84.3341 161.931 84.3317Z" fill="#375A64"/>
<path d="M149.856 139.563C149.856 139.563 147.86 120.639 147.745 113.646C147.63 106.654 150.889 99.7544 150.889 99.7544L163.66 99.2143C163.66 99.2143 166.184 106.309 166.229 109.289C166.317 115.081 164.69 120.8 164.878 125.395L165.305 139.563" fill="#7D99FE"/>
<path d="M165.732 116.298C165.734 116.303 165.662 116.357 165.523 116.456C165.488 116.481 165.449 116.509 165.407 116.539C165.367 116.572 165.328 116.615 165.283 116.658C165.194 116.744 165.089 116.841 164.999 116.976C164.586 117.481 164.285 118.383 164 119.509C163.842 120.068 163.683 120.696 163.353 121.309C163.265 121.459 163.186 121.618 163.07 121.758C163.014 121.829 162.964 121.905 162.903 121.974L162.706 122.17C162.44 122.432 162.102 122.63 161.746 122.786C161.031 123.099 160.224 123.248 159.487 123.618C158.745 123.979 158.188 124.68 157.848 125.486C157.488 126.29 157.27 127.133 156.97 127.92C156.675 128.701 156.274 129.462 155.637 129.942C155.005 130.439 154.224 130.553 153.547 130.597C152.859 130.637 152.223 130.617 151.651 130.704C151.083 130.782 150.578 130.963 150.222 131.243C149.865 131.524 149.656 131.876 149.558 132.178C149.456 132.484 149.475 132.741 149.508 132.905C149.541 133.072 149.588 133.151 149.578 133.156C149.578 133.156 149.522 133.081 149.478 132.912C149.434 132.746 149.404 132.48 149.5 132.161C149.593 131.845 149.801 131.475 150.168 131.175C150.537 130.875 151.055 130.683 151.635 130.596C152.217 130.501 152.861 130.514 153.538 130.469C154.208 130.421 154.956 130.303 155.55 129.829C156.153 129.371 156.539 128.64 156.829 127.866C157.123 127.088 157.34 126.244 157.707 125.423C158.051 124.602 158.641 123.857 159.418 123.483C160.185 123.102 160.992 122.959 161.689 122.655C162.036 122.505 162.359 122.319 162.614 122.071L162.802 121.885C162.861 121.82 162.91 121.747 162.964 121.679C163.076 121.547 163.154 121.393 163.241 121.249C163.565 120.656 163.731 120.036 163.895 119.48C164.193 118.36 164.515 117.443 164.952 116.939C165.047 116.805 165.158 116.708 165.252 116.624C165.3 116.582 165.341 116.54 165.383 116.508C165.427 116.48 165.468 116.454 165.505 116.431C165.652 116.339 165.729 116.294 165.732 116.298Z" fill="#FAFAFA"/>
<path d="M165.81 107.541C165.816 107.541 165.821 107.627 165.827 107.794C165.829 107.961 165.809 108.208 165.738 108.518C165.59 109.135 165.139 109.982 164.296 110.749C163.879 111.134 163.375 111.506 162.8 111.842C162.228 112.181 161.597 112.504 160.95 112.87C160.306 113.236 159.641 113.65 159.057 114.201C158.465 114.744 158.022 115.459 157.623 116.216C157.22 116.971 156.863 117.74 156.38 118.406C156.14 118.738 155.869 119.042 155.569 119.302C155.268 119.56 154.939 119.77 154.605 119.944C153.936 120.292 153.253 120.507 152.621 120.705C151.987 120.901 151.396 121.074 150.88 121.291C150.362 121.504 149.914 121.746 149.551 122.002C149.189 122.259 148.913 122.528 148.718 122.771C148.323 123.26 148.24 123.614 148.217 123.603C148.213 123.601 148.241 123.518 148.3 123.362C148.368 123.211 148.474 122.985 148.671 122.734C148.862 122.481 149.137 122.2 149.501 121.932C149.865 121.665 150.316 121.413 150.837 121.19C151.358 120.964 151.952 120.784 152.583 120.583C153.212 120.38 153.886 120.162 154.54 119.818C154.865 119.646 155.183 119.441 155.473 119.19C155.762 118.938 156.024 118.643 156.257 118.317C156.728 117.666 157.082 116.903 157.487 116.143C157.887 115.383 158.344 114.648 158.953 114.091C159.554 113.528 160.23 113.111 160.88 112.746C161.532 112.382 162.165 112.063 162.735 111.731C163.308 111.404 163.806 111.043 164.222 110.669C165.062 109.923 165.517 109.104 165.681 108.503C165.84 107.896 165.787 107.539 165.81 107.541Z" fill="#FAFAFA"/>
<path d="M147.809 114.648C147.806 114.649 147.797 114.629 147.782 114.591C147.77 114.551 147.742 114.494 147.725 114.414C147.689 114.256 147.667 114.005 147.755 113.703C147.92 113.1 148.575 112.349 149.632 111.973C150.158 111.792 150.754 111.683 151.375 111.52C151.99 111.355 152.659 111.123 153.159 110.609C153.407 110.356 153.617 110.054 153.791 109.722C153.962 109.388 154.102 109.029 154.234 108.658C154.5 107.918 154.723 107.115 155.174 106.385C155.622 105.649 156.352 105.137 157.108 104.881C157.861 104.605 158.621 104.482 159.326 104.319C160.033 104.165 160.695 103.966 161.256 103.662C161.808 103.348 162.249 102.929 162.561 102.486C163.201 101.597 163.368 100.686 163.391 100.085C163.405 99.4732 163.307 99.1403 163.328 99.1373C163.328 99.1373 163.446 99.4646 163.451 100.086C163.446 100.697 163.294 101.63 162.65 102.549C162.336 103.008 161.888 103.444 161.318 103.774C160.743 104.092 160.068 104.299 159.358 104.458C158.649 104.625 157.894 104.751 157.16 105.023C156.423 105.277 155.737 105.761 155.305 106.467C154.869 107.17 154.645 107.964 154.377 108.708C154.242 109.082 154.099 109.447 153.922 109.79C153.741 110.132 153.521 110.446 153.259 110.71C152.728 111.249 152.029 111.482 151.408 111.644C150.778 111.803 150.185 111.905 149.667 112.076C148.639 112.427 147.986 113.147 147.812 113.721C147.718 114.009 147.73 114.251 147.755 114.408C147.789 114.564 147.815 114.645 147.809 114.648Z" fill="#FAFAFA"/>
<path d="M164.712 130.649C164.717 130.649 164.724 130.712 164.732 130.835C164.74 130.958 164.73 131.141 164.678 131.371C164.573 131.827 164.221 132.452 163.557 132.972C163.231 133.235 162.836 133.477 162.382 133.67C161.929 133.864 161.429 134.017 160.906 134.18C160.384 134.343 159.836 134.514 159.303 134.765C158.766 135.011 158.271 135.371 157.844 135.83C157.412 136.283 157.039 136.778 156.625 137.214C156.212 137.654 155.744 138.016 155.259 138.283C154.283 138.822 153.272 139.007 152.44 139.016C151.601 139.026 150.936 138.849 150.5 138.694C150.279 138.617 150.116 138.54 150.007 138.483C149.897 138.428 149.841 138.397 149.844 138.392C149.846 138.388 149.907 138.409 150.02 138.455C150.132 138.503 150.298 138.57 150.518 138.637C150.956 138.773 151.615 138.93 152.438 138.907C153.254 138.884 154.242 138.691 155.189 138.159C155.662 137.894 156.112 137.542 156.515 137.11C156.92 136.68 157.292 136.186 157.732 135.723C158.167 135.255 158.689 134.877 159.238 134.629C159.786 134.373 160.341 134.204 160.865 134.044C161.388 133.885 161.887 133.737 162.333 133.552C162.778 133.368 163.167 133.138 163.49 132.886C164.146 132.389 164.5 131.794 164.62 131.355C164.737 130.911 164.691 130.649 164.712 130.649Z" fill="#FAFAFA"/>
<path d="M163.257 91.3579L160.787 91.4163C160.625 92.248 160.229 92.8172 160.229 92.8172C158.164 89.2328 156.563 84.4308 156.166 82.5009C156.224 82.3082 156.292 82.0948 156.378 81.8564C156.477 81.5814 156.392 81.0603 156.345 80.7712C156.276 80.3414 156.156 79.7631 156.12 79.4955C156.01 78.68 155.878 78.552 155.594 78.6441C155.207 78.7698 155.753 80.9346 155.435 80.9814C155.265 81.0069 155.057 80.2653 154.996 79.6564C154.936 79.0479 154.661 77.176 154.459 77.0512C154.165 76.8683 153.908 77.1576 153.982 77.7638C154.057 78.3771 154.152 80.206 153.831 80.2309C153.514 80.2552 153.248 77.1517 153.248 77.1517C153.248 77.1517 153.298 76.4764 152.926 76.4927C152.254 76.5218 152.779 79.7937 152.836 80.1037C152.876 80.3192 152.528 80.3586 152.497 80.1248C152.466 79.8841 152.303 77.0212 151.62 77.0441C151.095 77.0619 152.026 79.7406 151.731 80.3613C151.437 80.9823 151.232 78.2526 150.731 78.2902C150.544 78.3041 150.406 78.3406 150.749 79.8853C150.934 80.7155 151.475 82.2421 151.948 83.506C152.741 87.7893 156.227 101.492 161.691 98.9833C164.748 97.58 165.989 91.3594 165.989 91.3594L163.257 91.3579Z" fill="#FFC19E"/>
<path d="M152.719 80.3135C152.719 80.3135 152.744 80.3179 152.79 80.3037C152.832 80.2906 152.915 80.2388 152.902 80.1323C152.895 79.9486 152.866 79.6803 152.824 79.3338C152.792 78.9852 152.687 78.5664 152.687 78.071C152.683 77.8226 152.689 77.5562 152.703 77.2734C152.713 77.132 152.715 76.9853 152.747 76.8465C152.77 76.7123 152.86 76.5587 152.963 76.5771L152.975 76.5789L152.98 76.5786C153.085 76.5738 153.168 76.6559 153.202 76.7816C153.239 76.9017 153.248 77.0434 153.241 77.1785L153.24 77.1842L153.241 77.188C153.31 77.9463 153.385 78.7762 153.557 79.6628C153.581 79.7737 153.606 79.8851 153.64 79.9975C153.658 80.0538 153.678 80.1101 153.702 80.1673C153.718 80.1964 153.728 80.2245 153.753 80.2551C153.774 80.2809 153.8 80.3259 153.876 80.3327C153.999 80.3238 154.035 80.2305 154.063 80.1774C154.09 80.1157 154.106 80.0553 154.119 79.9951C154.144 79.8745 154.157 79.7541 154.166 79.6332C154.199 79.1497 154.182 78.6565 154.146 78.1505C154.135 77.895 154.072 77.6398 154.115 77.408C154.136 77.2938 154.183 77.1788 154.261 77.1314C154.299 77.1083 154.342 77.1035 154.389 77.1154C154.412 77.1222 154.436 77.1317 154.459 77.1459C154.479 77.1646 154.474 77.1563 154.492 77.1895C154.591 77.4017 154.642 77.6783 154.698 77.9347C154.75 78.197 154.796 78.4644 154.837 78.7347C154.879 79.0048 154.917 79.2787 154.949 79.554C154.976 79.8297 155.016 80.1187 155.086 80.3973C155.122 80.5376 155.161 80.6775 155.22 80.8162C155.25 80.8858 155.281 80.9549 155.342 81.0258C155.364 81.056 155.433 81.1126 155.519 81.0904C155.603 81.0622 155.627 80.9958 155.64 80.9573C155.689 80.7868 155.675 80.6452 155.672 80.4961C155.666 80.349 155.653 80.2035 155.641 80.0582C155.62 79.8084 155.596 79.5614 155.588 79.3181C155.584 79.1968 155.584 79.0756 155.597 78.9615C155.604 78.9058 155.613 78.8483 155.632 78.8068C155.641 78.786 155.653 78.7706 155.661 78.7629C155.666 78.7578 155.669 78.7602 155.673 78.7555L155.711 78.7445C155.908 78.6633 155.973 78.9366 156.025 79.1574C156.071 79.3871 156.1 79.6246 156.146 79.8585C156.224 80.3256 156.324 80.7892 156.376 81.2353C156.397 81.4562 156.413 81.6859 156.35 81.8732C156.28 82.0875 156.21 82.2998 156.142 82.509L156.135 82.5283L156.14 82.5482C156.501 84.142 157.002 85.5681 157.466 86.8341C157.936 88.0989 158.405 89.1921 158.819 90.0858C159.232 90.9807 159.602 91.6702 159.858 92.1403C159.988 92.3632 160.09 92.5393 160.166 92.6703C160.238 92.7898 160.277 92.8505 160.281 92.8485C160.285 92.8461 160.254 92.7809 160.19 92.657C160.119 92.5233 160.024 92.3434 159.904 92.1154C159.663 91.6382 159.307 90.9437 158.908 90.0452C158.507 89.1477 158.051 88.0527 157.592 86.7876C157.139 85.523 156.647 84.0931 156.296 82.5162L156.294 82.555C156.362 82.3481 156.432 82.1391 156.502 81.9275C156.581 81.6856 156.558 81.4496 156.538 81.2184C156.485 80.7548 156.388 80.3043 156.311 79.8353C156.265 79.6032 156.237 79.3652 156.189 79.1224C156.161 79.0012 156.135 78.8791 156.068 78.7555C156.036 78.6956 155.986 78.6274 155.905 78.5907C155.822 78.5548 155.737 78.5649 155.671 78.5812L155.621 78.5954C155.599 78.6055 155.571 78.6173 155.554 78.6334C155.516 78.6663 155.494 78.7039 155.479 78.7389C155.447 78.8097 155.439 78.8755 155.429 78.9413C155.415 79.0715 155.415 79.1977 155.419 79.3237C155.428 79.5751 155.452 79.8238 155.473 80.0725C155.485 80.2171 155.497 80.3612 155.503 80.5032C155.508 80.6416 155.513 80.7945 155.481 80.9016C155.474 80.9327 155.459 80.9268 155.476 80.9422L155.477 80.9434C155.476 80.9333 155.479 80.9585 155.479 80.9543L155.478 80.9514C155.478 80.9475 155.478 80.9436 155.479 80.941C155.481 80.9383 155.487 80.9279 155.483 80.9273C155.481 80.9265 155.474 80.9223 155.466 80.911C155.433 80.8734 155.4 80.8117 155.375 80.7504C155.322 80.6262 155.283 80.491 155.249 80.3567C155.181 80.0849 155.143 79.8152 155.115 79.5351C155.083 79.2561 155.043 78.9813 155.001 78.7092C154.958 78.4371 154.912 78.168 154.858 77.9021C154.797 77.6347 154.757 77.3777 154.632 77.1106C154.625 77.0837 154.572 77.0238 154.54 77.0063C154.506 76.9864 154.469 76.971 154.429 76.9601C154.349 76.9378 154.252 76.9479 154.178 76.9947C154.031 77.092 153.986 77.2464 153.959 77.3804C153.936 77.5188 153.939 77.6549 153.954 77.7868C153.969 77.9134 153.982 78.0373 153.991 78.1626C154.029 78.6615 154.047 79.1527 154.018 79.6222C154.01 79.7393 153.998 79.8552 153.975 79.9649C153.964 80.0197 153.949 80.0728 153.93 80.1184C153.921 80.1406 153.909 80.162 153.898 80.1738C153.887 80.1985 153.878 80.1682 153.878 80.2082C153.894 80.1777 153.879 80.1946 153.868 80.1691C153.855 80.1552 153.844 80.1285 153.832 80.1077C153.811 80.0594 153.793 80.0081 153.776 79.9557C153.743 79.8505 153.718 79.7414 153.694 79.6338C153.518 78.7632 153.436 77.9305 153.359 77.1779V77.1874C153.366 77.0351 153.356 76.8895 153.311 76.7466C153.288 76.6761 153.255 76.6047 153.195 76.5492C153.136 76.492 153.051 76.4665 152.975 76.4689L152.992 76.4707C152.873 76.4496 152.786 76.5217 152.736 76.5934C152.685 76.6669 152.663 76.7466 152.645 76.8234C152.612 76.979 152.613 77.1269 152.605 77.2689C152.595 77.5538 152.592 77.8223 152.601 78.0731C152.61 78.5788 152.724 78.9977 152.764 79.3421C152.816 79.6865 152.854 79.9536 152.871 80.1341C152.89 80.2198 152.821 80.2749 152.785 80.2892C152.743 80.3072 152.719 80.3099 152.719 80.3135Z" fill="#B66955"/>
<path d="M133.415 95.4387C133.415 95.4387 132.594 95.3996 131.698 95.6359C130.167 96.0384 127.524 97.64 127.415 99.6183H129.334C129.334 99.6183 128.259 101.906 128.575 101.694C129.395 101.145 131.026 99.4869 131.026 99.4869L133.415 95.4387Z" fill="#FFC19E"/>
<path d="M159.597 60.998C159.554 61.0019 159.38 59.4149 159.208 57.4537C159.035 55.4923 158.93 53.8997 158.972 53.8961C159.015 53.8923 159.189 55.4787 159.361 57.4404C159.534 59.4012 159.639 60.9942 159.597 60.998Z" fill="#1A2E35"/>
<path d="M168.017 53.9932C168.051 54.0178 166.754 55.9001 165.12 58.1967C163.486 60.494 162.133 62.3356 162.098 62.311C162.064 62.2861 163.36 60.4045 164.995 58.1069C166.629 55.8106 167.982 53.9686 168.017 53.9932Z" fill="#1A2E35"/>
<path d="M171.516 62.5233C171.524 62.5651 170.011 62.9117 168.136 63.2967C166.26 63.6823 164.733 63.961 164.725 63.9189C164.716 63.8774 166.229 63.5312 168.105 63.1455C169.98 62.7602 171.507 62.4816 171.516 62.5233Z" fill="#1A2E35"/>
<path d="M70.6995 103.239L60.2178 157.128L58.8457 164.182L128.819 163.837C131.96 163.821 134.743 161.033 135.753 156.891L148.161 106.014C148.928 102.869 147.245 99.5982 144.861 99.6006L74.0396 99.6753C72.476 99.6768 71.1086 101.136 70.6995 103.239Z" fill="#3A27A9"/>
<path d="M122.108 153.477L114.699 93.7757C114.395 91.3296 112.447 89.5049 110.146 89.5123L93.9004 89.5657C92.6981 89.5695 91.5453 90.0805 90.6911 90.9885L82.977 99.1889L37.795 99.4246C35.0338 99.4388 32.9126 102.051 33.2784 104.987L40.1571 160.166C40.4619 162.609 42.4067 164.431 44.7042 164.427L123.447 164.271C132.217 164.453 133.054 161.863 133.054 161.863C123.003 164.09 122.109 153.484 122.108 153.477Z" fill="#5136F5"/>
<g opacity="0.5">
<path opacity="0.5" d="M88.1554 141.527L85.4998 144.379L65.0459 125.979L67.7018 123.127L88.1554 141.527Z" fill="white"/>
</g>
<g opacity="0.5">
<path opacity="0.5" d="M84.3859 122.494L87.321 125.135L68.8138 145.012L65.8789 142.371L84.3859 122.494Z" fill="white"/>
</g>
<defs>
<linearGradient id="paint0_linear_109_55924" x1="11.1447" y1="164.972" x2="18.7372" y2="199.743" gradientUnits="userSpaceOnUse">
<stop stop-color="#452BFF"/>
<stop offset="0.486792" stop-color="#DA61B1"/>
<stop offset="1" stop-color="#FF7F2C"/>
</linearGradient>
<linearGradient id="paint1_linear_109_55924" x1="11.1447" y1="164.972" x2="18.7372" y2="199.743" gradientUnits="userSpaceOnUse">
<stop stop-color="#452BFF"/>
<stop offset="0.486792" stop-color="#DA61B1"/>
<stop offset="1" stop-color="#FF7F2C"/>
</linearGradient>
<linearGradient id="paint2_linear_109_55924" x1="89.6611" y1="55.8091" x2="101.329" y2="29.4062" gradientUnits="userSpaceOnUse">
<stop stop-color="#5136F5"/>
<stop offset="0.477753" stop-color="#F5579C"/>
<stop offset="1" stop-color="#FF7F2C"/>
</linearGradient>
<linearGradient id="paint3_linear_109_55924" x1="107.132" y1="40.0377" x2="108.658" y2="39.9481" gradientUnits="userSpaceOnUse">
<stop stop-color="#5136F5"/>
<stop offset="0.477753" stop-color="#F5579C"/>
<stop offset="1" stop-color="#FF7F2C"/>
</linearGradient>
</defs>
</svg>
