<svg version="1.2" xmlns="http://www.w3.org/2000/svg" viewBox="0 0 27 27" width="27" height="27">
	<title>logo</title>
	<style>
		.s0 { fill: #f5579d } 
		.s1 { fill: #00c2ff } 
	</style>
	<path fill-rule="evenodd" class="s0" d="m17.4 0.3c4.9 0 8.8 3.9 8.8 8.7 0 4.8-3.9 8.7-8.8 8.7v7.9c0 0.5-0.3 0.8-0.8 0.8h-7.9c-4.8 0-8.7-3.9-8.7-8.7 0-4.8 3.9-8.7 8.7-8.7v-7.9c0-0.5 0.4-0.8 0.9-0.8zm0 17.4v-7.9c0-0.4-0.4-0.8-0.9-0.8h-7.9v7.9c0 0.5 0.4 0.8 0.9 0.8z"/>
	<path class="s1" d="m9.5 0.3c-0.4 0-0.8 0.3-0.8 0.7v8h8c0.4 0 0.7 0.3 0.7 0.7v8c4.9 0 8.8-3.9 8.8-8.7 0-4.8-3.9-8.7-8.8-8.7z"/>
</svg>